<?xml version="1.0" encoding="UTF-8" standalone="no"?>
<svg
   xmlns:dc="http://purl.org/dc/elements/1.1/"
   xmlns:cc="http://creativecommons.org/ns#"
   xmlns:rdf="http://www.w3.org/1999/02/22-rdf-syntax-ns#"
   xmlns:svg="http://www.w3.org/2000/svg"
   xmlns="http://www.w3.org/2000/svg"
   width="369.25687"
   height="114.87405"
   viewBox="0 0 97.69921 30.393759"
   version="1.1"
   id="svg8">
  <defs
     id="defs2" />
  <metadata
     id="metadata5">
    <rdf:RDF>
      <cc:Work
         rdf:about="">
        <dc:format>image/svg+xml</dc:format>
        <dc:type
           rdf:resource="http://purl.org/dc/dcmitype/StillImage" />
        <dc:title></dc:title>
      </cc:Work>
    </rdf:RDF>
  </metadata>
  <g
     id="layer1"
     transform="translate(0.60158796,-3.9444288)">
    <g
       aria-label="FONtools"
       id="text835"
       style="font-size:19.812px;line-height:1.25;font-family:Arial;-inkscape-font-specification:Arial;letter-spacing:0px;word-spacing:0px;stroke-width:0.41275">
      <path
         d="m 0.90344665,19.880304 q -0.43586401,0 -0.73304401,-0.29718 -0.29718001,-0.29718 -0.29718001,-0.733044 V 5.4373561 q 0,-0.455676 0.29718001,-0.733044 0.29718,-0.29718 0.73304401,-0.29718 H 9.8584708 q 0.4556762,0 0.7330442,0.277368 0.277368,0.257556 0.277368,0.69342 0,0.416052 -0.277368,0.673608 -0.277368,0.257556 -0.7330442,0.257556 H 1.9336707 V 11.1234 h 5.686044 q 0.455676,0 0.733044,0.277368 0.2773681,0.257556 0.2773681,0.673608 0,0.416052 -0.2773681,0.69342 -0.277368,0.257556 -0.733044,0.257556 h -5.686044 v 5.824728 q 0,0.435864 -0.29718,0.733044 -0.29718,0.29718 -0.73304405,0.29718 z"
         style="font-style:normal;font-variant:normal;font-weight:bold;font-stretch:normal;font-size:19.812px;font-family:Comfortaa;-inkscape-font-specification:'Comfortaa Bold';fill:#7137c8;stroke-width:0.41275"
         id="path838" />
      <path
         d="m 20.655973,20.078424 q -1.743456,0 -3.189732,-0.574548 -1.446276,-0.59436 -2.496312,-1.644396 -1.030224,-1.069848 -1.604772,-2.516124 -0.574548,-1.466088 -0.574548,-3.209544 0,-1.743456 0.574548,-3.1897318 0.574548,-1.446276 1.604772,-2.496312 1.050036,-1.0698481 2.496312,-1.6443961 1.446276,-0.59436 3.189732,-0.59436 1.743456,0 3.16992,0.59436 1.446276,0.574548 2.496312,1.6443961 1.050036,1.050036 1.624584,2.496312 0.574548,1.4462758 0.574548,3.1897318 0,1.743456 -0.574548,3.209544 -0.574548,1.446276 -1.624584,2.516124 -1.050036,1.050036 -2.496312,1.644396 -1.426464,0.574548 -3.16992,0.574548 z m 0,-1.862328 q 1.28778,0 2.357628,-0.455676 1.08966,-0.475488 1.88214,-1.28778 0.79248,-0.832104 1.208532,-1.941576 0.435864,-1.109472 0.435864,-2.397252 0,-1.28778 -0.435864,-2.3972518 -0.416052,-1.109472 -1.208532,-1.921764 -0.79248,-0.832104 -1.88214,-1.28778 -1.069848,-0.4556761 -2.357628,-0.4556761 -1.28778,0 -2.37744,0.4556761 -1.069848,0.455676 -1.862328,1.28778 -0.772668,0.812292 -1.208532,1.921764 -0.435864,1.1094718 -0.435864,2.3972518 0,1.28778 0.435864,2.397252 0.435864,1.109472 1.208532,1.941576 0.79248,0.812292 1.862328,1.28778 1.08966,0.455676 2.37744,0.455676 z"
         style="font-style:normal;font-variant:normal;font-weight:bold;font-stretch:normal;font-size:19.812px;font-family:Comfortaa;-inkscape-font-specification:'Comfortaa Bold';fill:#7137c8;stroke-width:0.41275"
         id="path840" />
      <path
         d="m 32.761097,19.880304 q -0.435864,0 -0.733044,-0.29718 -0.277368,-0.29718 -0.277368,-0.733044 V 5.4373561 q 0,-0.455676 0.277368,-0.733044 0.29718,-0.29718 0.733044,-0.29718 0.475488,0 0.79248,0.376428 L 42.19161,16.27452 V 5.4373561 q 0,-0.455676 0.29718,-0.733044 0.29718,-0.29718 0.733044,-0.29718 0.455676,0 0.733044,0.29718 0.277368,0.277368 0.277368,0.733044 V 18.85008 q 0,0.435864 -0.277368,0.733044 -0.277368,0.29718 -0.733044,0.29718 -0.19812,0 -0.435864,-0.07925 -0.217932,-0.09906 -0.356616,-0.277368 L 33.791321,8.0327282 V 18.85008 q 0,0.435864 -0.29718,0.733044 -0.277368,0.29718 -0.733044,0.29718 z"
         style="font-style:normal;font-variant:normal;font-weight:bold;font-stretch:normal;font-size:19.812px;font-family:Comfortaa;-inkscape-font-specification:'Comfortaa Bold';fill:#7137c8;stroke-width:0.41275"
         id="path842" />
      <path
         d="m 51.939112,19.880304 q -0.9906,0 -1.78308,-0.4953 -0.79248,-0.515112 -1.248156,-1.38684 Q 48.4522,17.126436 48.4522,16.036776 V 6.5864522 q 0,-0.4358641 0.277368,-0.7132321 0.277368,-0.277368 0.713232,-0.277368 0.435864,0 0.713232,0.277368 0.277368,0.277368 0.277368,0.7132321 v 9.4503238 q 0,0.79248 0.435864,1.327404 0.435864,0.534924 1.069848,0.534924 h 0.673608 q 0.356616,0 0.59436,0.277368 0.257556,0.277368 0.257556,0.713232 0,0.435864 -0.336804,0.713232 -0.316992,0.277368 -0.832104,0.277368 z m -4.398264,-8.737092 q -0.416052,0 -0.673608,-0.237744 -0.257556,-0.237744 -0.257556,-0.59436 0,-0.3962398 0.257556,-0.6339838 0.257556,-0.237744 0.673608,-0.237744 h 4.576572 q 0.416052,0 0.673608,0.237744 0.257556,0.237744 0.257556,0.6339838 0,0.356616 -0.257556,0.59436 -0.257556,0.237744 -0.673608,0.237744 z"
         style="font-style:normal;font-variant:normal;font-weight:bold;font-stretch:normal;font-size:19.812px;font-family:Comfortaa;-inkscape-font-specification:'Comfortaa Bold';stroke-width:0.41275"
         id="path844" />
      <path
         d="m 60.854491,19.959552 q -1.604772,0 -2.833116,-0.69342 -1.228344,-0.713232 -1.941576,-1.941576 -0.69342,-1.248156 -0.69342,-2.852928 0,-1.624584 0.69342,-2.852928 0.713232,-1.248156 1.941576,-1.9415758 1.228344,-0.713232 2.833116,-0.713232 1.58496,0 2.813304,0.713232 1.228344,0.6934198 1.921764,1.9415758 0.713232,1.228344 0.713232,2.852928 0,1.604772 -0.69342,2.852928 -0.69342,1.228344 -1.921764,1.941576 -1.228344,0.69342 -2.833116,0.69342 z m 0,-1.78308 q 1.030224,0 1.822704,-0.475488 0.79248,-0.475488 1.228344,-1.307592 0.455676,-0.832104 0.455676,-1.921764 0,-1.08966 -0.455676,-1.921764 -0.435864,-0.851916 -1.228344,-1.327404 -0.79248,-0.475488 -1.822704,-0.475488 -1.030224,0 -1.822704,0.475488 -0.79248,0.475488 -1.248156,1.327404 -0.455676,0.832104 -0.455676,1.921764 0,1.08966 0.455676,1.921764 0.455676,0.832104 1.248156,1.307592 0.79248,0.475488 1.822704,0.475488 z"
         style="font-style:normal;font-variant:normal;font-weight:bold;font-stretch:normal;font-size:19.812px;font-family:Comfortaa;-inkscape-font-specification:'Comfortaa Bold';stroke-width:0.41275"
         id="path846" />
      <path
         d="m 74.22758,19.959552 q -1.604772,0 -2.833116,-0.69342 -1.228344,-0.713232 -1.941576,-1.941576 -0.69342,-1.248156 -0.69342,-2.852928 0,-1.624584 0.69342,-2.852928 0.713232,-1.248156 1.941576,-1.9415758 1.228344,-0.713232 2.833116,-0.713232 1.58496,0 2.813304,0.713232 1.228344,0.6934198 1.921764,1.9415758 0.713232,1.228344 0.713232,2.852928 0,1.604772 -0.69342,2.852928 -0.69342,1.228344 -1.921764,1.941576 -1.228344,0.69342 -2.833116,0.69342 z m 0,-1.78308 q 1.030224,0 1.822704,-0.475488 0.79248,-0.475488 1.228344,-1.307592 0.455676,-0.832104 0.455676,-1.921764 0,-1.08966 -0.455676,-1.921764 -0.435864,-0.851916 -1.228344,-1.327404 -0.79248,-0.475488 -1.822704,-0.475488 -1.030224,0 -1.822704,0.475488 -0.79248,0.475488 -1.248156,1.327404 -0.455676,0.832104 -0.455676,1.921764 0,1.08966 0.455676,1.921764 0.455676,0.832104 1.248156,1.307592 0.79248,0.475488 1.822704,0.475488 z"
         style="font-style:normal;font-variant:normal;font-weight:bold;font-stretch:normal;font-size:19.812px;font-family:Comfortaa;-inkscape-font-specification:'Comfortaa Bold';stroke-width:0.41275"
         id="path848" />
      <path
         d="m 85.262849,19.880304 q -0.871728,0 -1.545336,-0.475488 -0.673608,-0.475488 -1.050036,-1.28778 -0.376428,-0.832104 -0.376428,-1.901952 V 5.3977321 q 0,-0.435864 0.277368,-0.713232 0.277368,-0.277368 0.713232,-0.277368 0.435864,0 0.713232,0.277368 0.277368,0.277368 0.277368,0.713232 V 16.215084 q 0,0.733044 0.277368,1.208532 0.277368,0.475488 0.713232,0.475488 h 0.4953 q 0.39624,0 0.633984,0.277368 0.257556,0.277368 0.257556,0.713232 0,0.435864 -0.376428,0.713232 -0.376428,0.277368 -0.970788,0.277368 z"
         style="font-style:normal;font-variant:normal;font-weight:bold;font-stretch:normal;font-size:19.812px;font-family:Comfortaa;-inkscape-font-specification:'Comfortaa Bold';stroke-width:0.41275"
         id="path850" />
      <path
         d="m 92.573458,19.959552 q -1.38684,0 -2.57556,-0.416052 -1.168908,-0.435864 -1.822704,-1.08966 -0.29718,-0.316992 -0.257556,-0.713232 0.05944,-0.416052 0.39624,-0.673608 0.39624,-0.316992 0.772668,-0.257556 0.39624,0.03962 0.673608,0.336804 0.336804,0.376428 1.069848,0.713232 0.752856,0.316992 1.664208,0.316992 1.149096,0 1.743456,-0.376428 0.614172,-0.376428 0.633984,-0.970788 0.01981,-0.59436 -0.574548,-1.030224 -0.574548,-0.435864 -2.119884,-0.713232 -2.001012,-0.39624 -2.912364,-1.18872 -0.89154,-0.79248 -0.89154,-1.941576 0,-1.010412 0.59436,-1.664208 0.59436,-0.6736078 1.525524,-0.9905998 0.931164,-0.336804 1.941576,-0.336804 1.307592,0 2.318004,0.416052 1.010412,0.416052 1.604772,1.1490958 0.277368,0.316992 0.257556,0.673608 -0.01981,0.336804 -0.336804,0.574548 -0.316992,0.217932 -0.752856,0.138684 -0.435864,-0.07925 -0.733044,-0.356616 -0.4953,-0.475488 -1.069848,-0.653796 -0.574548,-0.178308 -1.327404,-0.178308 -0.871728,0 -1.4859,0.29718 -0.59436,0.29718 -0.59436,0.871728 0,0.356616 0.178308,0.653796 0.19812,0.277368 0.752856,0.515112 0.554736,0.217932 1.624584,0.435864 1.4859,0.29718 2.337816,0.752856 0.871728,0.455676 1.248156,1.069848 0.376428,0.59436 0.376428,1.38684 0,0.911352 -0.4953,1.644396 -0.475488,0.733044 -1.426464,1.168908 -0.931164,0.435864 -2.337816,0.435864 z"
         style="font-style:normal;font-variant:normal;font-weight:bold;font-stretch:normal;font-size:19.812px;font-family:Comfortaa;-inkscape-font-specification:'Comfortaa Bold';stroke-width:0.41275"
         id="path852" />
    </g>
    <g
       aria-label="Feature Object Notation"
       id="text836"
       style="font-size:7.70467px;line-height:1.25;font-family:Arial;-inkscape-font-specification:Arial;letter-spacing:0px;word-spacing:0px;stroke-width:0.41275">
      <path
         d="m -0.03652249,32.27071 q -0.12327472,0 -0.21573076,-0.08475 -0.0847514,-0.09246 -0.0847514,-0.215731 v -5.416383 q 0,-0.13098 0.0847514,-0.215731 0.0847514,-0.08475 0.21573076,-0.08475 H 3.5769677 q 0.1309794,0 0.2157308,0.08475 0.084751,0.07705 0.084751,0.208026 0,0.11557 -0.084751,0.200322 -0.084751,0.08475 -0.2157308,0.08475 H 0.26395963 v 2.126489 H 2.6755213 q 0.1309794,0 0.2157308,0.08475 0.084751,0.08475 0.084751,0.208026 0,0.123275 -0.084751,0.208026 -0.084751,0.08475 -0.2157308,0.08475 H 0.26395963 v 2.426971 q 0,0.123275 -0.0847514,0.215731 -0.08475137,0.08475 -0.21573075,0.08475 z"
         style="font-size:7.70467px;fill:#7137c8;stroke-width:0.41275"
         id="path855" />
      <path
         d="m 6.7898003,32.309233 q -0.6240783,0 -1.1094725,-0.269663 -0.4776895,-0.277368 -0.7550576,-0.762762 -0.2696635,-0.485395 -0.2696635,-1.109473 0,-0.631783 0.2542541,-1.109472 0.2619588,-0.485395 0.7165343,-0.762763 0.4545756,-0.277368 1.0478352,-0.277368 0.5855549,0 1.0170164,0.269664 0.4391662,0.261958 0.6780109,0.731943 0.2388448,0.469985 0.2388448,1.070949 0,0.123275 -0.077047,0.200322 -0.077047,0.06934 -0.2003214,0.06934 H 5.0562496 v -0.493099 h 3.3361221 l -0.3313009,0.238845 q 0.0077,-0.446871 -0.161798,-0.801286 Q 7.72977,28.949997 7.4138786,28.749676 7.1056918,28.549354 6.6742303,28.549354 q -0.4391662,0 -0.770467,0.208026 -0.3313009,0.208027 -0.5162129,0.577851 -0.1772074,0.362119 -0.1772074,0.832104 0,0.469985 0.2003214,0.832104 0.2080261,0.36212 0.5624409,0.570146 0.3544148,0.208026 0.816695,0.208026 0.2773681,0 0.5547362,-0.09246 0.2850728,-0.100161 0.4545756,-0.246549 0.084751,-0.06934 0.1926167,-0.06934 0.1078654,-0.0077 0.1849121,0.05393 0.1001607,0.09246 0.1001607,0.200322 0.0077,0.107865 -0.084751,0.184912 -0.2542541,0.215731 -0.6471922,0.362119 -0.3929382,0.138684 -0.7550577,0.138684 z"
         style="font-style:normal;font-variant:normal;font-weight:normal;font-stretch:normal;font-size:7.70467px;font-family:Comfortaa;-inkscape-font-specification:Comfortaa;stroke-width:0.41275"
         id="path857" />
      <path
         d="m 11.312426,32.309233 q -0.59326,0 -1.063245,-0.277368 -0.4699846,-0.285073 -0.7473527,-0.770467 -0.2696635,-0.485394 -0.2696635,-1.094063 0,-0.616374 0.2773682,-1.101768 0.2850727,-0.485394 0.770467,-0.762762 0.485394,-0.285073 1.094063,-0.285073 0.608669,0 1.086359,0.285073 0.485394,0.277368 0.762762,0.762762 0.285073,0.485394 0.292777,1.101768 l -0.238844,0.184912 q 0,0.554736 -0.261959,1.001607 -0.254254,0.439166 -0.701125,0.701125 -0.439166,0.254254 -1.001607,0.254254 z m 0.06164,-0.539327 q 0.446871,0 0.793581,-0.208026 0.354415,-0.208026 0.554736,-0.570145 0.208026,-0.369824 0.208026,-0.8244 0,-0.46228 -0.208026,-0.8244 -0.200321,-0.362119 -0.554736,-0.570145 -0.34671,-0.215731 -0.793581,-0.215731 -0.439166,0 -0.793581,0.215731 -0.354415,0.208026 -0.562441,0.570145 -0.2080259,0.36212 -0.2080259,0.8244 0,0.454576 0.2080259,0.8244 0.208026,0.362119 0.562441,0.570145 0.354415,0.208026 0.793581,0.208026 z m 1.841416,0.500804 q -0.130979,0 -0.215731,-0.07705 -0.08475,-0.08475 -0.08475,-0.21573 v -1.317499 l 0.146389,-0.608669 0.454575,0.11557 v 1.810598 q 0,0.130979 -0.08475,0.21573 -0.08475,0.07705 -0.215731,0.07705 z"
         style="font-style:normal;font-variant:normal;font-weight:normal;font-stretch:normal;font-size:7.70467px;font-family:Comfortaa;-inkscape-font-specification:Comfortaa;stroke-width:0.41275"
         id="path859" />
      <path
         d="m 16.320447,32.27071 q -0.408348,0 -0.731944,-0.192617 Q 15.272612,31.885476 15.0877,31.554176 14.902788,31.21517 14.902788,30.783709 v -3.767584 q 0,-0.130979 0.07705,-0.215731 0.08475,-0.08475 0.215731,-0.08475 0.130979,0 0.215731,0.08475 0.08475,0.08475 0.08475,0.215731 v 3.767584 q 0,0.392938 0.23114,0.647192 0.23114,0.246549 0.59326,0.246549 h 0.208026 q 0.123275,0 0.200321,0.08475 0.07705,0.08475 0.07705,0.215731 0,0.130979 -0.09246,0.21573 -0.09246,0.07705 -0.23114,0.07705 z m -1.918463,-3.544148 q -0.11557,0 -0.192617,-0.06934 -0.07705,-0.07705 -0.07705,-0.184912 0,-0.11557 0.07705,-0.184912 0.07705,-0.07705 0.192617,-0.07705 h 1.964691 q 0.11557,0 0.192617,0.07705 0.07705,0.06934 0.07705,0.184912 0,0.107865 -0.07705,0.184912 -0.07705,0.06934 -0.192617,0.06934 z"
         style="font-style:normal;font-variant:normal;font-weight:normal;font-stretch:normal;font-size:7.70467px;font-family:Comfortaa;-inkscape-font-specification:Comfortaa;stroke-width:0.41275"
         id="path861" />
      <path
         d="m 19.602624,32.316938 q -0.547031,0 -0.978493,-0.223435 -0.431461,-0.231141 -0.685715,-0.670307 -0.24655,-0.439166 -0.24655,-1.070949 v -2.003214 q 0,-0.123275 0.08475,-0.208026 0.08475,-0.08475 0.208027,-0.08475 0.130979,0 0.21573,0.08475 0.08475,0.08475 0.08475,0.208026 v 2.003214 q 0,0.47769 0.177207,0.785877 0.184912,0.308186 0.493099,0.46228 0.315891,0.154093 0.70883,0.154093 0.377528,0 0.678011,-0.146389 0.308186,-0.146388 0.485394,-0.400642 0.177207,-0.254255 0.177207,-0.577851 h 0.423757 q -0.02311,0.485394 -0.269663,0.870628 -0.238845,0.377529 -0.647193,0.600964 -0.408347,0.215731 -0.909151,0.215731 z m 1.695028,-0.04623 q -0.13098,0 -0.215731,-0.07705 -0.07705,-0.08475 -0.07705,-0.223435 v -3.621195 q 0,-0.130979 0.07705,-0.208026 0.08475,-0.08475 0.215731,-0.08475 0.130979,0 0.21573,0.08475 0.08475,0.07705 0.08475,0.208026 v 3.621195 q 0,0.138684 -0.08475,0.223435 -0.08475,0.07705 -0.21573,0.07705 z"
         style="font-style:normal;font-variant:normal;font-weight:normal;font-stretch:normal;font-size:7.70467px;font-family:Comfortaa;-inkscape-font-specification:Comfortaa;stroke-width:0.41275"
         id="path863" />
      <path
         d="m 23.23151,29.674236 q 0.02311,-0.477689 0.246549,-0.855218 0.23114,-0.377529 0.59326,-0.59326 0.369824,-0.21573 0.816695,-0.21573 0.354414,0 0.547031,0.10016 0.192617,0.100161 0.146389,0.292778 -0.03082,0.11557 -0.107866,0.154093 -0.06934,0.03852 -0.177207,0.03082 -0.100161,-0.0077 -0.23114,-0.01541 -0.431462,-0.03852 -0.770467,0.09246 -0.331301,0.123275 -0.531622,0.385234 -0.192617,0.261959 -0.192617,0.624078 z m 0.04623,2.596474 q -0.138685,0 -0.215731,-0.07705 -0.07705,-0.07705 -0.07705,-0.21573 v -3.6289 q 0,-0.138684 0.07705,-0.215731 0.07705,-0.07705 0.215731,-0.07705 0.138684,0 0.21573,0.07705 0.07705,0.07705 0.07705,0.215731 v 3.6289 q 0,0.138684 -0.07705,0.21573 -0.07705,0.07705 -0.21573,0.07705 z"
         style="font-style:normal;font-variant:normal;font-weight:normal;font-stretch:normal;font-size:7.70467px;font-family:Comfortaa;-inkscape-font-specification:Comfortaa;stroke-width:0.41275"
         id="path865" />
      <path
         d="m 28.11625,32.309233 q -0.624079,0 -1.109473,-0.269663 -0.477689,-0.277368 -0.755057,-0.762762 -0.269664,-0.485395 -0.269664,-1.109473 0,-0.631783 0.254254,-1.109472 0.261959,-0.485395 0.716535,-0.762763 0.454575,-0.277368 1.047835,-0.277368 0.585555,0 1.017016,0.269664 0.439166,0.261958 0.678011,0.731943 0.238845,0.469985 0.238845,1.070949 0,0.123275 -0.07705,0.200322 -0.07705,0.06934 -0.200321,0.06934 h -3.274485 v -0.493099 h 3.336122 l -0.331301,0.238845 q 0.0077,-0.446871 -0.161798,-0.801286 -0.169503,-0.354415 -0.485394,-0.554736 -0.308187,-0.200322 -0.739648,-0.200322 -0.439167,0 -0.770467,0.208026 -0.331301,0.208027 -0.516213,0.577851 -0.177208,0.362119 -0.177208,0.832104 0,0.469985 0.200322,0.832104 0.208026,0.36212 0.562441,0.570146 0.354414,0.208026 0.816695,0.208026 0.277368,0 0.554736,-0.09246 0.285073,-0.100161 0.454575,-0.246549 0.08475,-0.06934 0.192617,-0.06934 0.107866,-0.0077 0.184912,0.05393 0.100161,0.09246 0.100161,0.200322 0.0077,0.107865 -0.08475,0.184912 -0.254254,0.215731 -0.647193,0.362119 -0.392938,0.138684 -0.755057,0.138684 z"
         style="font-style:normal;font-variant:normal;font-weight:normal;font-stretch:normal;font-size:7.70467px;font-family:Comfortaa;-inkscape-font-specification:Comfortaa;stroke-width:0.41275"
         id="path867" />
      <path
         d="m 36.052041,32.347757 q -0.670306,0 -1.232747,-0.23114 -0.562441,-0.231141 -0.978493,-0.647193 -0.408347,-0.416052 -0.639488,-0.978493 -0.223435,-0.562441 -0.223435,-1.232747 0,-0.662602 0.223435,-1.225042 0.231141,-0.562441 0.639488,-0.978494 0.416052,-0.416052 0.978493,-0.647192 0.562441,-0.23114 1.232747,-0.23114 0.662602,0 1.225043,0.23114 0.562441,0.23114 0.978493,0.647192 0.416052,0.416053 0.639488,0.978494 0.23114,0.56244 0.23114,1.225042 0,0.670306 -0.23114,1.232747 -0.223436,0.562441 -0.639488,0.978493 -0.416052,0.416052 -0.978493,0.647193 -0.562441,0.23114 -1.225043,0.23114 z m 0,-0.570146 q 0.531623,0 0.986198,-0.184912 0.454576,-0.192617 0.785876,-0.531622 0.339006,-0.34671 0.523918,-0.801286 0.184912,-0.46228 0.184912,-1.001607 0,-0.531622 -0.184912,-0.986198 -0.184912,-0.46228 -0.523918,-0.801285 -0.3313,-0.346711 -0.785876,-0.531623 -0.454575,-0.192616 -0.986198,-0.192616 -0.539327,0 -0.993902,0.192616 -0.454576,0.184912 -0.793581,0.531623 -0.331301,0.339005 -0.516213,0.801285 -0.184912,0.454576 -0.184912,0.986198 0,0.539327 0.184912,1.001607 0.184912,0.454576 0.516213,0.801286 0.339005,0.339005 0.793581,0.531622 0.454575,0.184912 0.993902,0.184912 z"
         style="font-size:7.70467px;fill:#7137c8;stroke-width:0.41275"
         id="path869" />
      <path
         d="m 42.423803,32.309233 q -0.600964,0 -1.086358,-0.277368 -0.47769,-0.277368 -0.762763,-0.755057 -0.277368,-0.485395 -0.285073,-1.086359 v -3.636604 q 0,-0.138684 0.07705,-0.215731 0.08475,-0.08475 0.223436,-0.08475 0.130979,0 0.208026,0.08475 0.08475,0.07705 0.08475,0.215731 v 2.265173 q 0.254254,-0.36212 0.670306,-0.57785 0.423757,-0.223436 0.93997,-0.223436 0.59326,0 1.063244,0.285073 0.469985,0.277368 0.739649,0.762762 0.277368,0.485394 0.277368,1.094063 0,0.616374 -0.285073,1.101768 -0.277368,0.485394 -0.762762,0.770467 -0.485394,0.277368 -1.101768,0.277368 z m 0,-0.539327 q 0.446871,0 0.801286,-0.208026 0.354415,-0.21573 0.554736,-0.57785 0.208026,-0.362119 0.208026,-0.8244 0,-0.454575 -0.208026,-0.816695 -0.200321,-0.369824 -0.554736,-0.57785 -0.354415,-0.208026 -0.801286,-0.208026 -0.439166,0 -0.793581,0.208026 -0.354415,0.208026 -0.554736,0.57785 -0.200322,0.36212 -0.200322,0.816695 0,0.462281 0.200322,0.8244 0.200321,0.36212 0.554736,0.57785 0.354415,0.208026 0.793581,0.208026 z"
         style="font-style:normal;font-variant:normal;font-weight:normal;font-stretch:normal;font-size:7.70467px;font-family:Comfortaa;-inkscape-font-specification:Comfortaa;stroke-width:0.41275"
         id="path871" />
      <path
         d="m 44.619622,34.073603 q -0.13098,0 -0.215731,-0.08475 -0.08475,-0.07705 -0.08475,-0.21573 0,-0.13098 0.08475,-0.215731 0.08475,-0.08475 0.215731,-0.08475 0.354414,0 0.624078,-0.154094 0.269663,-0.154093 0.423757,-0.423757 0.161798,-0.269663 0.161798,-0.624078 v -3.913972 q 0,-0.138684 0.07705,-0.215731 0.08475,-0.08475 0.21573,-0.08475 0.13098,0 0.215731,0.08475 0.08475,0.07705 0.08475,0.215731 v 3.913972 q 0,0.523918 -0.23114,0.932265 -0.23114,0.408348 -0.639487,0.639488 -0.408348,0.23114 -0.932265,0.23114 z m 1.494706,-6.818633 q -0.169503,0 -0.292778,-0.123275 -0.123275,-0.123275 -0.123275,-0.300482 0,-0.192617 0.123275,-0.300482 0.13098,-0.11557 0.300482,-0.11557 0.161798,0 0.285073,0.11557 0.130979,0.107865 0.130979,0.300482 0,0.177207 -0.123274,0.300482 -0.123275,0.123275 -0.300482,0.123275 z"
         style="font-style:normal;font-variant:normal;font-weight:normal;font-stretch:normal;font-size:7.70467px;font-family:Comfortaa;-inkscape-font-specification:Comfortaa;stroke-width:0.41275"
         id="path873" />
      <path
         d="m 49.535195,32.309233 q -0.624078,0 -1.109472,-0.269663 -0.47769,-0.277368 -0.755058,-0.762762 -0.269664,-0.485395 -0.269664,-1.109473 0,-0.631783 0.254255,-1.109472 0.261958,-0.485395 0.716534,-0.762763 0.454575,-0.277368 1.047835,-0.277368 0.585555,0 1.017016,0.269664 0.439167,0.261958 0.678011,0.731943 0.238845,0.469985 0.238845,1.070949 0,0.123275 -0.07705,0.200322 -0.07705,0.06934 -0.200321,0.06934 h -3.274485 v -0.493099 h 3.336122 l -0.3313,0.238845 q 0.0077,-0.446871 -0.161799,-0.801286 -0.169502,-0.354415 -0.485394,-0.554736 -0.308187,-0.200322 -0.739648,-0.200322 -0.439166,0 -0.770467,0.208026 -0.331301,0.208027 -0.516213,0.577851 -0.177207,0.362119 -0.177207,0.832104 0,0.469985 0.200321,0.832104 0.208026,0.36212 0.562441,0.570146 0.354415,0.208026 0.816695,0.208026 0.277368,0 0.554736,-0.09246 0.285073,-0.100161 0.454576,-0.246549 0.08475,-0.06934 0.192617,-0.06934 0.107865,-0.0077 0.184912,0.05393 0.10016,0.09246 0.10016,0.200322 0.0077,0.107865 -0.08475,0.184912 -0.254254,0.215731 -0.647192,0.362119 -0.392939,0.138684 -0.755058,0.138684 z"
         style="font-style:normal;font-variant:normal;font-weight:normal;font-stretch:normal;font-size:7.70467px;font-family:Comfortaa;-inkscape-font-specification:Comfortaa;stroke-width:0.41275"
         id="path875" />
      <path
         d="m 54.080933,32.309233 q -0.608668,0 -1.086358,-0.277368 -0.469985,-0.285073 -0.747353,-0.770467 -0.269663,-0.485394 -0.269663,-1.094063 0,-0.616374 0.261958,-1.101768 0.261959,-0.485394 0.716535,-0.762762 0.454575,-0.285073 1.047835,-0.285073 0.469985,0 0.862923,0.184912 0.400643,0.184912 0.701125,0.554736 0.08475,0.09246 0.06164,0.200322 -0.02311,0.100161 -0.130979,0.177207 -0.08475,0.06164 -0.192617,0.04623 -0.100161,-0.02311 -0.177207,-0.11557 -0.446871,-0.508508 -1.124882,-0.508508 -0.431462,0 -0.762763,0.208026 -0.323596,0.208026 -0.508508,0.570146 -0.177207,0.362119 -0.177207,0.832104 0,0.46228 0.192617,0.8244 0.192616,0.362119 0.539326,0.570145 0.346711,0.208026 0.793581,0.208026 0.300483,0 0.547032,-0.07705 0.254254,-0.08475 0.446871,-0.254254 0.09246,-0.07705 0.192617,-0.08475 0.10016,-0.0077 0.184912,0.06164 0.09246,0.08475 0.10016,0.192616 0.01541,0.107866 -0.06934,0.184912 -0.56244,0.516213 -1.40225,0.516213 z"
         style="font-style:normal;font-variant:normal;font-weight:normal;font-stretch:normal;font-size:7.70467px;font-family:Comfortaa;-inkscape-font-specification:Comfortaa;stroke-width:0.41275"
         id="path877" />
      <path
         d="m 58.44177,32.27071 q -0.408348,0 -0.731944,-0.192617 Q 57.393934,31.885476 57.209022,31.554176 57.02411,31.21517 57.02411,30.783709 v -3.767584 q 0,-0.130979 0.07705,-0.215731 0.08475,-0.08475 0.215731,-0.08475 0.130979,0 0.215731,0.08475 0.08475,0.08475 0.08475,0.215731 v 3.767584 q 0,0.392938 0.23114,0.647192 0.23114,0.246549 0.59326,0.246549 h 0.208026 q 0.123274,0 0.200321,0.08475 0.07705,0.08475 0.07705,0.215731 0,0.130979 -0.09246,0.21573 -0.09246,0.07705 -0.23114,0.07705 z m -1.918463,-3.544148 q -0.11557,0 -0.192617,-0.06934 -0.07705,-0.07705 -0.07705,-0.184912 0,-0.11557 0.07705,-0.184912 0.07705,-0.07705 0.192617,-0.07705 h 1.964691 q 0.11557,0 0.192616,0.07705 0.07705,0.06934 0.07705,0.184912 0,0.107865 -0.07705,0.184912 -0.07705,0.06934 -0.192616,0.06934 z"
         style="font-style:normal;font-variant:normal;font-weight:normal;font-stretch:normal;font-size:7.70467px;font-family:Comfortaa;-inkscape-font-specification:Comfortaa;stroke-width:0.41275"
         id="path879" />
      <path
         d="m 62.525228,32.27071 q -0.13098,0 -0.215731,-0.08475 -0.08475,-0.08475 -0.08475,-0.215731 v -5.416383 q 0,-0.13098 0.08475,-0.215731 0.08475,-0.08475 0.215731,-0.08475 0.138684,0 0.23114,0.107865 l 3.682832,4.838533 v -4.645916 q 0,-0.13098 0.08475,-0.215731 0.08475,-0.08475 0.215731,-0.08475 0.123275,0 0.208026,0.08475 0.09246,0.08475 0.09246,0.215731 v 5.416383 q 0,0.130979 -0.09246,0.215731 -0.08475,0.08475 -0.208026,0.08475 -0.06164,0 -0.123275,-0.02311 -0.06164,-0.02311 -0.10016,-0.07705 L 62.82571,27.332017 v 4.638211 q 0,0.130979 -0.09246,0.215731 -0.08475,0.08475 -0.208026,0.08475 z"
         style="font-size:7.70467px;fill:#7137c8;stroke-width:0.41275"
         id="path881" />
      <path
         d="m 70.4225,32.309233 q -0.616373,0 -1.101768,-0.277368 -0.485394,-0.277368 -0.762762,-0.762762 -0.277368,-0.485394 -0.277368,-1.101768 0,-0.624078 0.277368,-1.109472 0.277368,-0.485395 0.762762,-0.762763 0.485395,-0.277368 1.101768,-0.277368 0.616374,0 1.094063,0.277368 0.485395,0.277368 0.762763,0.762763 0.277368,0.485394 0.285072,1.109472 0,0.616374 -0.285072,1.101768 -0.277368,0.485394 -0.762763,0.762762 -0.477689,0.277368 -1.094063,0.277368 z m 0,-0.539327 q 0.446871,0 0.801286,-0.208026 0.354415,-0.208026 0.554736,-0.570145 0.200322,-0.36212 0.200322,-0.8244 0,-0.46228 -0.200322,-0.8244 -0.200321,-0.369824 -0.554736,-0.57785 -0.354415,-0.208026 -0.801286,-0.208026 -0.446871,0 -0.801285,0.208026 -0.354415,0.208026 -0.562441,0.57785 -0.200322,0.36212 -0.200322,0.8244 0,0.46228 0.200322,0.8244 0.208026,0.362119 0.562441,0.570145 0.354414,0.208026 0.801285,0.208026 z"
         style="font-style:normal;font-variant:normal;font-weight:normal;font-stretch:normal;font-size:7.70467px;font-family:Comfortaa;-inkscape-font-specification:Comfortaa;stroke-width:0.41275"
         id="path883" />
      <path
         d="m 75.368886,32.27071 q -0.408348,0 -0.731944,-0.192617 -0.315891,-0.192617 -0.500803,-0.523917 -0.184912,-0.339006 -0.184912,-0.770467 v -3.767584 q 0,-0.130979 0.07705,-0.215731 0.08475,-0.08475 0.215731,-0.08475 0.13098,0 0.215731,0.08475 0.08475,0.08475 0.08475,0.215731 v 3.767584 q 0,0.392938 0.23114,0.647192 0.23114,0.246549 0.59326,0.246549 h 0.208026 q 0.123275,0 0.200321,0.08475 0.07705,0.08475 0.07705,0.215731 0,0.130979 -0.09246,0.21573 -0.09246,0.07705 -0.23114,0.07705 z m -1.918463,-3.544148 q -0.11557,0 -0.192617,-0.06934 -0.07705,-0.07705 -0.07705,-0.184912 0,-0.11557 0.07705,-0.184912 0.07705,-0.07705 0.192617,-0.07705 h 1.964691 q 0.11557,0 0.192617,0.07705 0.07705,0.06934 0.07705,0.184912 0,0.107865 -0.07705,0.184912 -0.07705,0.06934 -0.192617,0.06934 z"
         style="font-style:normal;font-variant:normal;font-weight:normal;font-stretch:normal;font-size:7.70467px;font-family:Comfortaa;-inkscape-font-specification:Comfortaa;stroke-width:0.41275"
         id="path885" />
      <path
         d="m 78.674179,32.309233 q -0.593259,0 -1.063244,-0.277368 -0.469985,-0.285073 -0.747353,-0.770467 -0.269664,-0.485394 -0.269664,-1.094063 0,-0.616374 0.277368,-1.101768 0.285073,-0.485394 0.770467,-0.762762 0.485395,-0.285073 1.094064,-0.285073 0.608668,0 1.086358,0.285073 0.485394,0.277368 0.762762,0.762762 0.285073,0.485394 0.292778,1.101768 l -0.238845,0.184912 q 0,0.554736 -0.261959,1.001607 -0.254254,0.439166 -0.701125,0.701125 -0.439166,0.254254 -1.001607,0.254254 z m 0.06164,-0.539327 q 0.44687,0 0.793581,-0.208026 0.354414,-0.208026 0.554736,-0.570145 0.208026,-0.369824 0.208026,-0.8244 0,-0.46228 -0.208026,-0.8244 -0.200322,-0.362119 -0.554736,-0.570145 -0.346711,-0.215731 -0.793581,-0.215731 -0.439167,0 -0.793581,0.215731 -0.354415,0.208026 -0.562441,0.570145 -0.208026,0.36212 -0.208026,0.8244 0,0.454576 0.208026,0.8244 0.208026,0.362119 0.562441,0.570145 0.354414,0.208026 0.793581,0.208026 z m 1.841416,0.500804 q -0.13098,0 -0.215731,-0.07705 -0.08475,-0.08475 -0.08475,-0.21573 v -1.317499 l 0.146388,-0.608669 0.454576,0.11557 v 1.810598 q 0,0.130979 -0.08475,0.21573 -0.08475,0.07705 -0.21573,0.07705 z"
         style="font-style:normal;font-variant:normal;font-weight:normal;font-stretch:normal;font-size:7.70467px;font-family:Comfortaa;-inkscape-font-specification:Comfortaa;stroke-width:0.41275"
         id="path887" />
      <path
         d="m 83.682202,32.27071 q -0.408347,0 -0.731943,-0.192617 -0.315892,-0.192617 -0.500804,-0.523917 -0.184912,-0.339006 -0.184912,-0.770467 v -3.767584 q 0,-0.130979 0.07705,-0.215731 0.08475,-0.08475 0.21573,-0.08475 0.13098,0 0.215731,0.08475 0.08475,0.08475 0.08475,0.215731 v 3.767584 q 0,0.392938 0.23114,0.647192 0.23114,0.246549 0.593259,0.246549 h 0.208026 q 0.123275,0 0.200322,0.08475 0.07705,0.08475 0.07705,0.215731 0,0.130979 -0.09246,0.21573 -0.09246,0.07705 -0.23114,0.07705 z m -1.918463,-3.544148 q -0.11557,0 -0.192616,-0.06934 -0.07705,-0.07705 -0.07705,-0.184912 0,-0.11557 0.07705,-0.184912 0.07705,-0.07705 0.192616,-0.07705 h 1.964691 q 0.11557,0 0.192617,0.07705 0.07705,0.06934 0.07705,0.184912 0,0.107865 -0.07705,0.184912 -0.07705,0.06934 -0.192617,0.06934 z"
         style="font-style:normal;font-variant:normal;font-weight:normal;font-stretch:normal;font-size:7.70467px;font-family:Comfortaa;-inkscape-font-specification:Comfortaa;stroke-width:0.41275"
         id="path889" />
      <path
         d="m 85.554427,32.27071 q -0.138684,0 -0.223436,-0.07705 -0.07705,-0.08475 -0.07705,-0.223435 v -3.61349 q 0,-0.138684 0.07705,-0.215731 0.08475,-0.08475 0.223436,-0.08475 0.130979,0 0.208026,0.08475 0.08475,0.07705 0.08475,0.215731 v 3.61349 q 0,0.138684 -0.08475,0.223435 -0.07705,0.07705 -0.208026,0.07705 z m -0.0077,-5.01574 q -0.169502,0 -0.292777,-0.123275 -0.123275,-0.123275 -0.123275,-0.300482 0,-0.192617 0.123275,-0.300482 0.130979,-0.11557 0.300482,-0.11557 0.161798,0 0.285073,0.11557 0.130979,0.107865 0.130979,0.300482 0,0.177207 -0.123275,0.300482 -0.123274,0.123275 -0.300482,0.123275 z"
         style="font-style:normal;font-variant:normal;font-weight:normal;font-stretch:normal;font-size:7.70467px;font-family:Comfortaa;-inkscape-font-specification:Comfortaa;stroke-width:0.41275"
         id="path891" />
      <path
         d="m 89.275779,32.309233 q -0.616373,0 -1.101767,-0.277368 -0.485395,-0.277368 -0.762763,-0.762762 -0.277368,-0.485394 -0.277368,-1.101768 0,-0.624078 0.277368,-1.109472 0.277368,-0.485395 0.762763,-0.762763 0.485394,-0.277368 1.101767,-0.277368 0.616374,0 1.094063,0.277368 0.485395,0.277368 0.762763,0.762763 0.277368,0.485394 0.285073,1.109472 0,0.616374 -0.285073,1.101768 -0.277368,0.485394 -0.762763,0.762762 -0.477689,0.277368 -1.094063,0.277368 z m 0,-0.539327 q 0.446871,0 0.801286,-0.208026 0.354415,-0.208026 0.554736,-0.570145 0.200322,-0.36212 0.200322,-0.8244 0,-0.46228 -0.200322,-0.8244 -0.200321,-0.369824 -0.554736,-0.57785 -0.354415,-0.208026 -0.801286,-0.208026 -0.446871,0 -0.801285,0.208026 -0.354415,0.208026 -0.562441,0.57785 -0.200322,0.36212 -0.200322,0.8244 0,0.46228 0.200322,0.8244 0.208026,0.362119 0.562441,0.570145 0.354414,0.208026 0.801285,0.208026 z"
         style="font-style:normal;font-variant:normal;font-weight:normal;font-stretch:normal;font-size:7.70467px;font-family:Comfortaa;-inkscape-font-specification:Comfortaa;stroke-width:0.41275"
         id="path893" />
      <path
         d="m 96.186848,32.27071 q -0.130979,0 -0.21573,-0.08475 -0.08475,-0.08475 -0.08475,-0.208026 v -2.003215 q 0,-0.477689 -0.184912,-0.785876 -0.177207,-0.308187 -0.493099,-0.46228 -0.308187,-0.154094 -0.701125,-0.154094 -0.377529,0 -0.685715,0.146389 -0.300483,0.146389 -0.47769,0.400643 -0.177207,0.254254 -0.177207,0.57785 h -0.423757 q 0.01541,-0.485394 0.261959,-0.862923 0.246549,-0.385233 0.654897,-0.600964 0.408347,-0.223435 0.909151,-0.223435 0.547031,0 0.978493,0.23114 0.431461,0.223435 0.678011,0.662601 0.254254,0.439166 0.254254,1.070949 v 2.003215 q 0,0.123274 -0.08475,0.208026 -0.08475,0.08475 -0.208026,0.08475 z m -3.313008,0 q -0.138684,0 -0.223435,-0.07705 -0.07705,-0.08475 -0.07705,-0.21573 v -3.621195 q 0,-0.138684 0.07705,-0.215731 0.08475,-0.08475 0.223435,-0.08475 0.13098,0 0.208026,0.08475 0.08475,0.07705 0.08475,0.215731 v 3.621195 q 0,0.130979 -0.08475,0.21573 -0.07705,0.07705 -0.208026,0.07705 z"
         style="font-style:normal;font-variant:normal;font-weight:normal;font-stretch:normal;font-size:7.70467px;font-family:Comfortaa;-inkscape-font-specification:Comfortaa;stroke-width:0.41275"
         id="path895" />
    </g>
  </g>
</svg>
