<?xml version="1.0" encoding="UTF-8" standalone="no"?>
<svg
   xmlns:dc="http://purl.org/dc/elements/1.1/"
   xmlns:cc="http://creativecommons.org/ns#"
   xmlns:rdf="http://www.w3.org/1999/02/22-rdf-syntax-ns#"
   xmlns:svg="http://www.w3.org/2000/svg"
   xmlns="http://www.w3.org/2000/svg"
   width="284.50528"
   height="88.82618"
   viewBox="0 0 75.275353 23.501927"
   version="1.1"
   id="svg8">
  <defs
     id="defs2" />
  <metadata
     id="metadata5">
    <rdf:RDF>
      <cc:Work
         rdf:about="">
        <dc:format>image/svg+xml</dc:format>
        <dc:type
           rdf:resource="http://purl.org/dc/dcmitype/StillImage" />
        <dc:title></dc:title>
      </cc:Work>
    </rdf:RDF>
  </metadata>
  <g
     id="layer1"
     transform="translate(-10.61034,-7.3903432)">
    <g
       aria-label="FONtools"
       id="text835"
       style="font-size:15.24px;line-height:1.25;font-family:Arial;-inkscape-font-specification:Arial;letter-spacing:0px;word-spacing:0px;stroke-width:0.3175">
      <path
         d="m 11.829116,19.709766 q -0.33528,0 -0.56388,-0.2286 -0.2286,-0.2286 -0.2286,-0.56388 V 8.5998066 q 0,-0.35052 0.2286,-0.56388 0.2286,-0.2286 0.56388,-0.2286 h 6.88848 q 0.35052,0 0.56388,0.21336 0.21336,0.19812 0.21336,0.5334 0,0.32004 -0.21336,0.5181599 -0.21336,0.19812 -0.56388,0.19812 h -6.096 v 3.7033195 h 4.37388 q 0.35052,0 0.56388,0.21336 0.21336,0.19812 0.21336,0.51816 0,0.32004 -0.21336,0.5334 -0.21336,0.19812 -0.56388,0.19812 h -4.37388 v 4.48056 q 0,0.33528 -0.2286,0.56388 -0.2286,0.2286 -0.56388,0.2286 z"
         style="font-style:normal;font-variant:normal;font-weight:bold;font-stretch:normal;font-size:15.24px;font-family:Comfortaa;-inkscape-font-specification:'Comfortaa Bold';fill:#7137c8;stroke-width:0.3175"
         id="path838" />
      <path
         d="m 27.023367,19.862166 q -1.34112,0 -2.45364,-0.44196 -1.11252,-0.4572 -1.92024,-1.26492 -0.79248,-0.82296 -1.23444,-1.93548 -0.44196,-1.12776 -0.44196,-2.46888 0,-1.34112 0.44196,-2.453639 0.44196,-1.11252 1.23444,-1.9202405 0.80772,-0.8229599 1.92024,-1.2649199 1.11252,-0.4572 2.45364,-0.4572 1.34112,0 2.4384,0.4572 1.11252,0.44196 1.92024,1.2649199 0.80772,0.8077205 1.24968,1.9202405 0.44196,1.112519 0.44196,2.453639 0,1.34112 -0.44196,2.46888 -0.44196,1.11252 -1.24968,1.93548 -0.80772,0.80772 -1.92024,1.26492 -1.09728,0.44196 -2.4384,0.44196 z m 0,-1.43256 q 0.9906,0 1.81356,-0.35052 0.8382,-0.36576 1.4478,-0.9906 0.6096,-0.64008 0.92964,-1.49352 0.33528,-0.85344 0.33528,-1.84404 0,-0.9906 -0.33528,-1.844039 -0.32004,-0.85344 -0.92964,-1.47828 -0.6096,-0.6400805 -1.4478,-0.9906005 -0.82296,-0.35052 -1.81356,-0.35052 -0.9906,0 -1.8288,0.35052 -0.82296,0.35052 -1.43256,0.9906005 -0.59436,0.62484 -0.92964,1.47828 -0.33528,0.853439 -0.33528,1.844039 0,0.9906 0.33528,1.84404 0.33528,0.85344 0.92964,1.49352 0.6096,0.62484 1.43256,0.9906 0.8382,0.35052 1.8288,0.35052 z"
         style="font-style:normal;font-variant:normal;font-weight:bold;font-stretch:normal;font-size:15.24px;font-family:Comfortaa;-inkscape-font-specification:'Comfortaa Bold';fill:#7137c8;stroke-width:0.3175"
         id="path840" />
      <path
         d="m 36.335001,19.709766 q -0.33528,0 -0.56388,-0.2286 -0.21336,-0.2286 -0.21336,-0.56388 V 8.5998066 q 0,-0.35052 0.21336,-0.56388 0.2286,-0.2286 0.56388,-0.2286 0.36576,0 0.6096,0.28956 l 6.64464,8.8391994 V 8.5998066 q 0,-0.35052 0.2286,-0.56388 0.2286,-0.2286 0.56388,-0.2286 0.35052,0 0.56388,0.2286 0.21336,0.21336 0.21336,0.56388 V 18.917286 q 0,0.33528 -0.21336,0.56388 -0.21336,0.2286 -0.56388,0.2286 -0.1524,0 -0.33528,-0.06096 -0.16764,-0.0762 -0.27432,-0.21336 l -6.64464,-8.839199 v 8.321039 q 0,0.33528 -0.2286,0.56388 -0.21336,0.2286 -0.56388,0.2286 z"
         style="font-style:normal;font-variant:normal;font-weight:bold;font-stretch:normal;font-size:15.24px;font-family:Comfortaa;-inkscape-font-specification:'Comfortaa Bold';fill:#7137c8;stroke-width:0.3175"
         id="path842" />
      <path
         d="m 51.087318,19.709766 q -0.762,0 -1.3716,-0.381 -0.6096,-0.39624 -0.96012,-1.0668 -0.35052,-0.67056 -0.35052,-1.50876 V 9.4837265 q 0,-0.33528 0.21336,-0.54864 0.21336,-0.2133599 0.54864,-0.2133599 0.33528,0 0.54864,0.2133599 0.21336,0.21336 0.21336,0.54864 v 7.2694795 q 0,0.6096 0.33528,1.02108 0.33528,0.41148 0.82296,0.41148 h 0.51816 q 0.27432,0 0.4572,0.21336 0.19812,0.21336 0.19812,0.54864 0,0.33528 -0.25908,0.54864 -0.24384,0.21336 -0.64008,0.21336 z m -3.38328,-6.72084 q -0.32004,0 -0.51816,-0.18288 -0.19812,-0.18288 -0.19812,-0.4572 0,-0.304799 0.19812,-0.487679 0.19812,-0.18288 0.51816,-0.18288 h 3.52044 q 0.32004,0 0.51816,0.18288 0.19812,0.18288 0.19812,0.487679 0,0.27432 -0.19812,0.4572 -0.19812,0.18288 -0.51816,0.18288 z"
         style="font-style:normal;font-variant:normal;font-weight:bold;font-stretch:normal;font-size:15.24px;font-family:Comfortaa;-inkscape-font-specification:'Comfortaa Bold';stroke-width:0.3175"
         id="path844" />
      <path
         d="m 57.945303,19.770726 q -1.23444,0 -2.17932,-0.5334 -0.94488,-0.54864 -1.49352,-1.49352 -0.5334,-0.96012 -0.5334,-2.19456 0,-1.24968 0.5334,-2.19456 0.54864,-0.96012 1.49352,-1.493519 0.94488,-0.54864 2.17932,-0.54864 1.2192,0 2.16408,0.54864 0.94488,0.533399 1.47828,1.493519 0.54864,0.94488 0.54864,2.19456 0,1.23444 -0.5334,2.19456 -0.5334,0.94488 -1.47828,1.49352 -0.94488,0.5334 -2.17932,0.5334 z m 0,-1.3716 q 0.79248,0 1.40208,-0.36576 0.6096,-0.36576 0.94488,-1.00584 0.35052,-0.64008 0.35052,-1.47828 0,-0.8382 -0.35052,-1.47828 -0.33528,-0.65532 -0.94488,-1.02108 -0.6096,-0.36576 -1.40208,-0.36576 -0.79248,0 -1.40208,0.36576 -0.6096,0.36576 -0.96012,1.02108 -0.35052,0.64008 -0.35052,1.47828 0,0.8382 0.35052,1.47828 0.35052,0.64008 0.96012,1.00584 0.6096,0.36576 1.40208,0.36576 z"
         style="font-style:normal;font-variant:normal;font-weight:bold;font-stretch:normal;font-size:15.24px;font-family:Comfortaa;-inkscape-font-specification:'Comfortaa Bold';stroke-width:0.3175"
         id="path846" />
      <path
         d="m 68.232294,19.770726 q -1.23444,0 -2.17932,-0.5334 -0.94488,-0.54864 -1.49352,-1.49352 -0.5334,-0.96012 -0.5334,-2.19456 0,-1.24968 0.5334,-2.19456 0.54864,-0.96012 1.49352,-1.493519 0.94488,-0.54864 2.17932,-0.54864 1.2192,0 2.16408,0.54864 0.94488,0.533399 1.47828,1.493519 0.54864,0.94488 0.54864,2.19456 0,1.23444 -0.5334,2.19456 -0.5334,0.94488 -1.47828,1.49352 -0.94488,0.5334 -2.17932,0.5334 z m 0,-1.3716 q 0.79248,0 1.40208,-0.36576 0.6096,-0.36576 0.94488,-1.00584 0.35052,-0.64008 0.35052,-1.47828 0,-0.8382 -0.35052,-1.47828 -0.33528,-0.65532 -0.94488,-1.02108 -0.6096,-0.36576 -1.40208,-0.36576 -0.79248,0 -1.40208,0.36576 -0.6096,0.36576 -0.96012,1.02108 -0.35052,0.64008 -0.35052,1.47828 0,0.8382 0.35052,1.47828 0.35052,0.64008 0.96012,1.00584 0.6096,0.36576 1.40208,0.36576 z"
         style="font-style:normal;font-variant:normal;font-weight:bold;font-stretch:normal;font-size:15.24px;font-family:Comfortaa;-inkscape-font-specification:'Comfortaa Bold';stroke-width:0.3175"
         id="path848" />
      <path
         d="m 76.720961,19.709766 q -0.67056,0 -1.18872,-0.36576 -0.51816,-0.36576 -0.80772,-0.9906 -0.28956,-0.64008 -0.28956,-1.46304 V 8.5693266 q 0,-0.33528 0.21336,-0.54864 0.21336,-0.21336 0.54864,-0.21336 0.33528,0 0.54864,0.21336 0.21336,0.21336 0.21336,0.54864 v 8.3210394 q 0,0.56388 0.21336,0.92964 0.21336,0.36576 0.54864,0.36576 h 0.381 q 0.3048,0 0.48768,0.21336 0.19812,0.21336 0.19812,0.54864 0,0.33528 -0.28956,0.54864 -0.28956,0.21336 -0.74676,0.21336 z"
         style="font-style:normal;font-variant:normal;font-weight:bold;font-stretch:normal;font-size:15.24px;font-family:Comfortaa;-inkscape-font-specification:'Comfortaa Bold';stroke-width:0.3175"
         id="path850" />
      <path
         d="m 82.344508,19.770726 q -1.0668,0 -1.9812,-0.32004 -0.89916,-0.33528 -1.40208,-0.8382 -0.2286,-0.24384 -0.19812,-0.54864 0.04572,-0.32004 0.3048,-0.51816 0.3048,-0.24384 0.59436,-0.19812 0.3048,0.03048 0.51816,0.25908 0.25908,0.28956 0.82296,0.54864 0.57912,0.24384 1.28016,0.24384 0.88392,0 1.34112,-0.28956 0.47244,-0.28956 0.48768,-0.74676 0.01524,-0.4572 -0.44196,-0.79248 -0.44196,-0.33528 -1.63068,-0.54864 -1.53924,-0.3048 -2.24028,-0.9144 -0.6858,-0.6096 -0.6858,-1.49352 0,-0.77724 0.4572,-1.28016 0.4572,-0.518159 1.17348,-0.761999 0.71628,-0.25908 1.49352,-0.25908 1.00584,0 1.78308,0.32004 0.77724,0.32004 1.23444,0.883919 0.21336,0.24384 0.19812,0.51816 -0.01524,0.25908 -0.25908,0.44196 -0.24384,0.16764 -0.57912,0.10668 -0.33528,-0.06096 -0.56388,-0.27432 -0.381,-0.36576 -0.82296,-0.50292 -0.44196,-0.13716 -1.02108,-0.13716 -0.67056,0 -1.143,0.2286 -0.4572,0.2286 -0.4572,0.67056 0,0.27432 0.13716,0.50292 0.1524,0.21336 0.57912,0.39624 0.42672,0.16764 1.24968,0.33528 1.143,0.2286 1.79832,0.57912 0.67056,0.35052 0.96012,0.82296 0.28956,0.4572 0.28956,1.0668 0,0.70104 -0.381,1.26492 -0.36576,0.56388 -1.09728,0.89916 -0.71628,0.33528 -1.79832,0.33528 z"
         style="font-style:normal;font-variant:normal;font-weight:bold;font-stretch:normal;font-size:15.24px;font-family:Comfortaa;-inkscape-font-specification:'Comfortaa Bold';stroke-width:0.3175"
         id="path852" />
    </g>
    <g
       aria-label="Feature Object Notation"
       id="text836"
       style="font-size:5.92667px;line-height:1.25;font-family:Arial;-inkscape-font-specification:Arial;letter-spacing:0px;word-spacing:0px;stroke-width:0.3175">
      <path
         d="m 11.106063,29.240847 q -0.09483,0 -0.165946,-0.06519 -0.06519,-0.07112 -0.06519,-0.165946 v -4.16645 q 0,-0.100753 0.06519,-0.165946 0.06519,-0.06519 0.165946,-0.06519 h 2.779609 q 0.100753,0 0.165946,0.06519 0.06519,0.05927 0.06519,0.16002 0,0.0889 -0.06519,0.154093 -0.06519,0.06519 -0.165946,0.06519 h -2.548469 v 1.635761 h 1.855048 q 0.100754,0 0.165947,0.06519 0.06519,0.06519 0.06519,0.16002 0,0.09483 -0.06519,0.16002 -0.06519,0.06519 -0.165947,0.06519 h -1.855048 v 1.866902 q 0,0.09483 -0.06519,0.165946 -0.06519,0.06519 -0.165947,0.06519 z"
         style="font-size:5.92667px;fill:#7137c8;stroke-width:0.3175"
         id="path855" />
      <path
         d="m 16.357082,29.27048 q -0.48006,0 -0.853441,-0.207433 -0.367453,-0.213361 -0.580813,-0.586741 -0.207434,-0.37338 -0.207434,-0.85344 0,-0.485987 0.19558,-0.853441 0.201507,-0.37338 0.551181,-0.58674 0.349673,-0.21336 0.806027,-0.21336 0.450427,0 0.78232,0.207433 0.33782,0.201507 0.521547,0.563034 0.183727,0.361527 0.183727,0.823807 0,0.09483 -0.05927,0.154093 -0.05927,0.05334 -0.154093,0.05334 h -2.518835 v -0.379306 h 2.566248 l -0.254847,0.183726 q 0.0059,-0.343747 -0.12446,-0.616373 -0.130386,-0.272627 -0.37338,-0.426721 -0.237067,-0.154093 -0.56896,-0.154093 -0.33782,0 -0.592667,0.16002 -0.254847,0.16002 -0.397087,0.4445 -0.136314,0.278554 -0.136314,0.640081 0,0.361527 0.154094,0.64008 0.16002,0.278554 0.432647,0.438574 0.272627,0.16002 0.628227,0.16002 0.21336,0 0.42672,-0.07112 0.219287,-0.07705 0.349674,-0.189654 0.06519,-0.05334 0.148166,-0.05334 0.08297,-0.0059 0.14224,0.04149 0.07705,0.07112 0.07705,0.154093 0.0059,0.08297 -0.06519,0.14224 -0.19558,0.165947 -0.497841,0.278554 -0.30226,0.10668 -0.580813,0.10668 z"
         style="font-style:normal;font-variant:normal;font-weight:normal;font-stretch:normal;font-size:5.92667px;font-family:Comfortaa;-inkscape-font-specification:Comfortaa;stroke-width:0.3175"
         id="path857" />
      <path
         d="m 19.836025,29.27048 q -0.456354,0 -0.817881,-0.21336 -0.361526,-0.219287 -0.574887,-0.592667 -0.207433,-0.37338 -0.207433,-0.841587 0,-0.474134 0.21336,-0.847514 0.219287,-0.37338 0.592667,-0.58674 0.37338,-0.219287 0.841587,-0.219287 0.468207,0 0.835661,0.219287 0.37338,0.21336 0.58674,0.58674 0.219287,0.37338 0.225214,0.847514 l -0.183727,0.14224 q 0,0.42672 -0.201507,0.770467 -0.19558,0.33782 -0.539327,0.539327 -0.33782,0.19558 -0.770467,0.19558 z m 0.04741,-0.414867 q 0.343747,0 0.610447,-0.16002 0.272627,-0.16002 0.426721,-0.438574 0.16002,-0.28448 0.16002,-0.634153 0,-0.355601 -0.16002,-0.634154 -0.154094,-0.278553 -0.426721,-0.438574 -0.2667,-0.165946 -0.610447,-0.165946 -0.33782,0 -0.610447,0.165946 -0.272627,0.160021 -0.432647,0.438574 -0.16002,0.278553 -0.16002,0.634154 0,0.349673 0.16002,0.634153 0.16002,0.278554 0.432647,0.438574 0.272627,0.16002 0.610447,0.16002 z m 1.416474,0.385234 q -0.100753,0 -0.165946,-0.05927 -0.06519,-0.06519 -0.06519,-0.165947 v -1.01346 l 0.112607,-0.468207 0.349674,0.0889 v 1.392767 q 0,0.100754 -0.06519,0.165947 -0.06519,0.05927 -0.165947,0.05927 z"
         style="font-style:normal;font-variant:normal;font-weight:normal;font-stretch:normal;font-size:5.92667px;font-family:Comfortaa;-inkscape-font-specification:Comfortaa;stroke-width:0.3175"
         id="path859" />
      <path
         d="m 23.68835,29.240847 q -0.314113,0 -0.563033,-0.148167 -0.242994,-0.148167 -0.385234,-0.403014 -0.14224,-0.260773 -0.14224,-0.592667 v -2.898141 q 0,-0.100754 0.05927,-0.165947 0.06519,-0.06519 0.165946,-0.06519 0.100754,0 0.165947,0.06519 0.06519,0.06519 0.06519,0.165947 v 2.898141 q 0,0.30226 0.177801,0.497841 0.1778,0.189653 0.456353,0.189653 h 0.16002 q 0.09483,0 0.154094,0.06519 0.05927,0.06519 0.05927,0.165947 0,0.100754 -0.07112,0.165947 -0.07112,0.05927 -0.1778,0.05927 z m -1.475741,-2.726269 q -0.0889,0 -0.148166,-0.05334 -0.05927,-0.05927 -0.05927,-0.14224 0,-0.0889 0.05927,-0.14224 0.05927,-0.05927 0.148166,-0.05927 h 1.511301 q 0.0889,0 0.148167,0.05927 0.05927,0.05334 0.05927,0.14224 0,0.08297 -0.05927,0.14224 -0.05927,0.05334 -0.148167,0.05334 z"
         style="font-style:normal;font-variant:normal;font-weight:normal;font-stretch:normal;font-size:5.92667px;font-family:Comfortaa;-inkscape-font-specification:Comfortaa;stroke-width:0.3175"
         id="path861" />
      <path
         d="m 26.213102,29.276407 q -0.420793,0 -0.752687,-0.171874 -0.331893,-0.1778 -0.527473,-0.51562 -0.189654,-0.33782 -0.189654,-0.823807 v -1.540934 q 0,-0.09483 0.06519,-0.160021 0.06519,-0.06519 0.16002,-0.06519 0.100753,0 0.165946,0.06519 0.06519,0.06519 0.06519,0.160021 v 1.540934 q 0,0.367453 0.136313,0.60452 0.14224,0.237067 0.379307,0.3556 0.242994,0.118534 0.545254,0.118534 0.290407,0 0.521547,-0.112607 0.237066,-0.112607 0.37338,-0.308187 0.136313,-0.19558 0.136313,-0.4445 h 0.325967 q -0.01778,0.37338 -0.207433,0.669714 -0.183727,0.290406 -0.497841,0.46228 -0.314113,0.165947 -0.699347,0.165947 z m 1.303868,-0.03556 q -0.100754,0 -0.165947,-0.05927 -0.05927,-0.06519 -0.05927,-0.171873 v -2.785535 q 0,-0.100754 0.05927,-0.160021 0.06519,-0.06519 0.165947,-0.06519 0.100753,0 0.165947,0.06519 0.06519,0.05927 0.06519,0.160021 v 2.785535 q 0,0.10668 -0.06519,0.171873 -0.06519,0.05927 -0.165947,0.05927 z"
         style="font-style:normal;font-variant:normal;font-weight:normal;font-stretch:normal;font-size:5.92667px;font-family:Comfortaa;-inkscape-font-specification:Comfortaa;stroke-width:0.3175"
         id="path863" />
      <path
         d="m 29.004554,27.243559 q 0.01778,-0.367454 0.189653,-0.657861 0.1778,-0.290406 0.456354,-0.456353 0.28448,-0.165947 0.628227,-0.165947 0.272627,0 0.420793,0.07705 0.148167,0.07705 0.112607,0.225213 -0.02371,0.0889 -0.08297,0.118534 -0.05334,0.02963 -0.136314,0.02371 -0.07705,-0.0059 -0.1778,-0.01185 -0.331893,-0.02963 -0.592667,0.07112 -0.254847,0.09483 -0.40894,0.296334 -0.148167,0.201506 -0.148167,0.48006 z m 0.03556,1.997288 q -0.10668,0 -0.165947,-0.05927 -0.05927,-0.05927 -0.05927,-0.165947 v -2.791461 q 0,-0.10668 0.05927,-0.165947 0.05927,-0.05927 0.165947,-0.05927 0.10668,0 0.165946,0.05927 0.05927,0.05927 0.05927,0.165947 v 2.791461 q 0,0.10668 -0.05927,0.165947 -0.05927,0.05927 -0.165946,0.05927 z"
         style="font-style:normal;font-variant:normal;font-weight:normal;font-stretch:normal;font-size:5.92667px;font-family:Comfortaa;-inkscape-font-specification:Comfortaa;stroke-width:0.3175"
         id="path865" />
      <path
         d="m 32.762046,29.27048 q -0.480061,0 -0.853441,-0.207433 -0.367454,-0.213361 -0.580814,-0.586741 -0.207433,-0.37338 -0.207433,-0.85344 0,-0.485987 0.19558,-0.853441 0.201507,-0.37338 0.55118,-0.58674 0.349674,-0.21336 0.806027,-0.21336 0.450427,0 0.782321,0.207433 0.33782,0.201507 0.521547,0.563034 0.183727,0.361527 0.183727,0.823807 0,0.09483 -0.05927,0.154093 -0.05927,0.05334 -0.154093,0.05334 h -2.518835 v -0.379306 h 2.566248 l -0.254847,0.183726 q 0.0059,-0.343747 -0.12446,-0.616373 -0.130387,-0.272627 -0.37338,-0.426721 -0.237067,-0.154093 -0.568961,-0.154093 -0.33782,0 -0.592667,0.16002 -0.254846,0.16002 -0.397086,0.4445 -0.136314,0.278554 -0.136314,0.640081 0,0.361527 0.154094,0.64008 0.16002,0.278554 0.432646,0.438574 0.272627,0.16002 0.628228,0.16002 0.21336,0 0.42672,-0.07112 0.219287,-0.07705 0.349673,-0.189654 0.06519,-0.05334 0.148167,-0.05334 0.08297,-0.0059 0.14224,0.04149 0.07705,0.07112 0.07705,0.154093 0.0059,0.08297 -0.06519,0.14224 -0.19558,0.165947 -0.49784,0.278554 -0.30226,0.10668 -0.580813,0.10668 z"
         style="font-style:normal;font-variant:normal;font-weight:normal;font-stretch:normal;font-size:5.92667px;font-family:Comfortaa;-inkscape-font-specification:Comfortaa;stroke-width:0.3175"
         id="path867" />
      <path
         d="m 38.866503,29.300113 q -0.515621,0 -0.948267,-0.1778 -0.432647,-0.1778 -0.752688,-0.49784 -0.314113,-0.32004 -0.491913,-0.752687 -0.171874,-0.432647 -0.171874,-0.948267 0,-0.509694 0.171874,-0.942341 0.1778,-0.432647 0.491913,-0.752687 0.320041,-0.32004 0.752688,-0.49784 0.432646,-0.1778 0.948267,-0.1778 0.509693,0 0.94234,0.1778 0.432647,0.1778 0.752687,0.49784 0.320041,0.32004 0.491914,0.752687 0.1778,0.432647 0.1778,0.942341 0,0.51562 -0.1778,0.948267 -0.171873,0.432647 -0.491914,0.752687 -0.32004,0.32004 -0.752687,0.49784 -0.432647,0.1778 -0.94234,0.1778 z m 0,-0.438573 q 0.40894,0 0.758614,-0.14224 0.349673,-0.148167 0.60452,-0.408941 0.260773,-0.2667 0.403013,-0.616373 0.142241,-0.3556 0.142241,-0.770467 0,-0.408941 -0.142241,-0.758614 -0.14224,-0.3556 -0.403013,-0.616374 -0.254847,-0.2667 -0.60452,-0.40894 -0.349674,-0.148167 -0.758614,-0.148167 -0.414867,0 -0.764541,0.148167 -0.349673,0.14224 -0.610447,0.40894 -0.254847,0.260774 -0.397087,0.616374 -0.14224,0.349673 -0.14224,0.758614 0,0.414867 0.14224,0.770467 0.14224,0.349673 0.397087,0.616373 0.260774,0.260774 0.610447,0.408941 0.349674,0.14224 0.764541,0.14224 z"
         style="font-size:5.92667px;fill:#7137c8;stroke-width:0.3175"
         id="path869" />
      <path
         d="m 43.767856,29.27048 q -0.462281,0 -0.835661,-0.21336 -0.367453,-0.21336 -0.58674,-0.580814 -0.21336,-0.37338 -0.219287,-0.83566 v -2.797389 q 0,-0.10668 0.05927,-0.165946 0.06519,-0.06519 0.171873,-0.06519 0.100754,0 0.16002,0.06519 0.06519,0.05927 0.06519,0.165946 v 1.742441 q 0.19558,-0.278553 0.51562,-0.4445 0.325967,-0.171873 0.723054,-0.171873 0.456353,0 0.81788,0.219287 0.361527,0.21336 0.56896,0.58674 0.213361,0.37338 0.213361,0.841587 0,0.474134 -0.219287,0.847514 -0.21336,0.37338 -0.586741,0.592667 -0.37338,0.21336 -0.847513,0.21336 z m 0,-0.414867 q 0.343746,0 0.616373,-0.16002 0.272627,-0.165947 0.426721,-0.4445 0.16002,-0.278554 0.16002,-0.634154 0,-0.349674 -0.16002,-0.628227 -0.154094,-0.28448 -0.426721,-0.4445 -0.272627,-0.16002 -0.616373,-0.16002 -0.337821,0 -0.610447,0.16002 -0.272627,0.16002 -0.426721,0.4445 -0.154093,0.278553 -0.154093,0.628227 0,0.3556 0.154093,0.634154 0.154094,0.278553 0.426721,0.4445 0.272626,0.16002 0.610447,0.16002 z"
         style="font-style:normal;font-variant:normal;font-weight:normal;font-stretch:normal;font-size:5.92667px;font-family:Comfortaa;-inkscape-font-specification:Comfortaa;stroke-width:0.3175"
         id="path871" />
      <path
         d="m 45.456952,30.627687 q -0.100753,0 -0.165947,-0.06519 -0.06519,-0.05927 -0.06519,-0.165947 0,-0.100753 0.06519,-0.165946 0.06519,-0.06519 0.165947,-0.06519 0.272627,0 0.48006,-0.118533 0.207434,-0.118534 0.325967,-0.325967 0.12446,-0.207434 0.12446,-0.48006 v -3.010749 q 0,-0.10668 0.05927,-0.165947 0.06519,-0.06519 0.165947,-0.06519 0.100753,0 0.165947,0.06519 0.06519,0.05927 0.06519,0.165947 v 3.010749 q 0,0.403013 -0.1778,0.717127 -0.1778,0.314113 -0.491914,0.491913 -0.314113,0.1778 -0.717127,0.1778 z m 1.149774,-5.245103 q -0.130387,0 -0.225213,-0.09483 -0.09483,-0.09483 -0.09483,-0.23114 0,-0.148167 0.09483,-0.231141 0.100753,-0.0889 0.23114,-0.0889 0.12446,0 0.219287,0.0889 0.100753,0.08297 0.100753,0.231141 0,0.136313 -0.09483,0.23114 -0.09483,0.09483 -0.23114,0.09483 z"
         style="font-style:normal;font-variant:normal;font-weight:normal;font-stretch:normal;font-size:5.92667px;font-family:Comfortaa;-inkscape-font-specification:Comfortaa;stroke-width:0.3175"
         id="path873" />
      <path
         d="m 49.23816,29.27048 q -0.48006,0 -0.853441,-0.207433 -0.367453,-0.213361 -0.580813,-0.586741 -0.207434,-0.37338 -0.207434,-0.85344 0,-0.485987 0.19558,-0.853441 0.201507,-0.37338 0.551181,-0.58674 0.349673,-0.21336 0.806027,-0.21336 0.450427,0 0.78232,0.207433 0.33782,0.201507 0.521547,0.563034 0.183727,0.361527 0.183727,0.823807 0,0.09483 -0.05927,0.154093 -0.05927,0.05334 -0.154093,0.05334 h -2.518835 v -0.379306 h 2.566248 l -0.254847,0.183726 q 0.0059,-0.343747 -0.12446,-0.616373 -0.130386,-0.272627 -0.37338,-0.426721 -0.237067,-0.154093 -0.56896,-0.154093 -0.33782,0 -0.592667,0.16002 -0.254847,0.16002 -0.397087,0.4445 -0.136314,0.278554 -0.136314,0.640081 0,0.361527 0.154094,0.64008 0.16002,0.278554 0.432647,0.438574 0.272627,0.16002 0.628227,0.16002 0.21336,0 0.42672,-0.07112 0.219287,-0.07705 0.349674,-0.189654 0.06519,-0.05334 0.148166,-0.05334 0.08297,-0.0059 0.14224,0.04149 0.07705,0.07112 0.07705,0.154093 0.0059,0.08297 -0.06519,0.14224 -0.19558,0.165947 -0.497841,0.278554 -0.30226,0.10668 -0.580813,0.10668 z"
         style="font-style:normal;font-variant:normal;font-weight:normal;font-stretch:normal;font-size:5.92667px;font-family:Comfortaa;-inkscape-font-specification:Comfortaa;stroke-width:0.3175"
         id="path875" />
      <path
         d="m 52.734881,29.27048 q -0.468207,0 -0.835661,-0.21336 -0.361527,-0.219287 -0.574887,-0.592667 -0.207433,-0.37338 -0.207433,-0.841587 0,-0.474134 0.201507,-0.847514 0.201506,-0.37338 0.55118,-0.58674 0.349674,-0.219287 0.806027,-0.219287 0.361527,0 0.663787,0.14224 0.308187,0.14224 0.539327,0.42672 0.06519,0.07112 0.04741,0.154094 -0.01778,0.07705 -0.100753,0.136313 -0.06519,0.04741 -0.148167,0.03556 -0.07705,-0.01778 -0.136313,-0.0889 -0.343747,-0.39116 -0.865294,-0.39116 -0.331893,0 -0.58674,0.16002 -0.24892,0.16002 -0.39116,0.438573 -0.136314,0.278554 -0.136314,0.640081 0,0.3556 0.148167,0.634153 0.148167,0.278554 0.414867,0.438574 0.2667,0.16002 0.610447,0.16002 0.23114,0 0.420793,-0.05927 0.19558,-0.06519 0.343747,-0.19558 0.07112,-0.05927 0.148167,-0.06519 0.07705,-0.0059 0.14224,0.04741 0.07112,0.06519 0.07705,0.148167 0.01185,0.08297 -0.05334,0.14224 -0.432647,0.397087 -1.078654,0.397087 z"
         style="font-style:normal;font-variant:normal;font-weight:normal;font-stretch:normal;font-size:5.92667px;font-family:Comfortaa;-inkscape-font-specification:Comfortaa;stroke-width:0.3175"
         id="path877" />
      <path
         d="m 56.089372,29.240847 q -0.314113,0 -0.563034,-0.148167 -0.242993,-0.148167 -0.385233,-0.403014 -0.14224,-0.260773 -0.14224,-0.592667 v -2.898141 q 0,-0.100754 0.05927,-0.165947 0.06519,-0.06519 0.165946,-0.06519 0.100754,0 0.165947,0.06519 0.06519,0.06519 0.06519,0.165947 v 2.898141 q 0,0.30226 0.177801,0.497841 0.1778,0.189653 0.456353,0.189653 h 0.16002 q 0.09483,0 0.154094,0.06519 0.05927,0.06519 0.05927,0.165947 0,0.100754 -0.07112,0.165947 -0.07112,0.05927 -0.1778,0.05927 z m -1.475741,-2.726269 q -0.0889,0 -0.148166,-0.05334 -0.05927,-0.05927 -0.05927,-0.14224 0,-0.0889 0.05927,-0.14224 0.05927,-0.05927 0.148166,-0.05927 h 1.511301 q 0.0889,0 0.148167,0.05927 0.05927,0.05334 0.05927,0.14224 0,0.08297 -0.05927,0.14224 -0.05927,0.05334 -0.148167,0.05334 z"
         style="font-style:normal;font-variant:normal;font-weight:normal;font-stretch:normal;font-size:5.92667px;font-family:Comfortaa;-inkscape-font-specification:Comfortaa;stroke-width:0.3175"
         id="path879" />
      <path
         d="m 59.230494,29.240847 q -0.100753,0 -0.165947,-0.06519 -0.06519,-0.06519 -0.06519,-0.165946 v -4.16645 q 0,-0.100753 0.06519,-0.165946 0.06519,-0.06519 0.165947,-0.06519 0.10668,0 0.1778,0.08297 l 2.832948,3.721948 v -3.573782 q 0,-0.100753 0.06519,-0.165946 0.06519,-0.06519 0.165946,-0.06519 0.09483,0 0.160021,0.06519 0.07112,0.06519 0.07112,0.165946 v 4.16645 q 0,0.100753 -0.07112,0.165946 -0.06519,0.06519 -0.160021,0.06519 -0.04741,0 -0.09483,-0.01778 -0.04741,-0.01778 -0.07705,-0.05927 l -2.838875,-3.721949 v 3.567856 q 0,0.100753 -0.07112,0.165946 -0.06519,0.06519 -0.16002,0.06519 z"
         style="font-size:5.92667px;fill:#7137c8;stroke-width:0.3175"
         id="path881" />
      <path
         d="m 65.305324,29.27048 q -0.474134,0 -0.847514,-0.21336 -0.37338,-0.21336 -0.58674,-0.58674 -0.21336,-0.373381 -0.21336,-0.847514 0,-0.480061 0.21336,-0.853441 0.21336,-0.37338 0.58674,-0.58674 0.37338,-0.21336 0.847514,-0.21336 0.474133,0 0.841587,0.21336 0.37338,0.21336 0.58674,0.58674 0.21336,0.37338 0.219287,0.853441 0,0.474133 -0.219287,0.847514 -0.21336,0.37338 -0.58674,0.58674 -0.367454,0.21336 -0.841587,0.21336 z m 0,-0.414867 q 0.343747,0 0.616373,-0.16002 0.272627,-0.16002 0.426721,-0.438574 0.154093,-0.278553 0.154093,-0.634153 0,-0.355601 -0.154093,-0.634154 -0.154094,-0.28448 -0.426721,-0.4445 -0.272626,-0.16002 -0.616373,-0.16002 -0.343747,0 -0.616374,0.16002 -0.272627,0.16002 -0.432647,0.4445 -0.154093,0.278553 -0.154093,0.634154 0,0.3556 0.154093,0.634153 0.16002,0.278554 0.432647,0.438574 0.272627,0.16002 0.616374,0.16002 z"
         style="font-style:normal;font-variant:normal;font-weight:normal;font-stretch:normal;font-size:5.92667px;font-family:Comfortaa;-inkscape-font-specification:Comfortaa;stroke-width:0.3175"
         id="path883" />
      <path
         d="m 69.110235,29.240847 q -0.314114,0 -0.563034,-0.148167 -0.242993,-0.148167 -0.385234,-0.403014 -0.14224,-0.260773 -0.14224,-0.592667 v -2.898141 q 0,-0.100754 0.05927,-0.165947 0.06519,-0.06519 0.165947,-0.06519 0.100753,0 0.165947,0.06519 0.06519,0.06519 0.06519,0.165947 v 2.898141 q 0,0.30226 0.1778,0.497841 0.1778,0.189653 0.456354,0.189653 h 0.16002 q 0.09483,0 0.154093,0.06519 0.05927,0.06519 0.05927,0.165947 0,0.100754 -0.07112,0.165947 -0.07112,0.05927 -0.1778,0.05927 z m -1.475741,-2.726269 q -0.0889,0 -0.148167,-0.05334 -0.05927,-0.05927 -0.05927,-0.14224 0,-0.0889 0.05927,-0.14224 0.05927,-0.05927 0.148167,-0.05927 h 1.511301 q 0.0889,0 0.148166,0.05927 0.05927,0.05334 0.05927,0.14224 0,0.08297 -0.05927,0.14224 -0.05927,0.05334 -0.148166,0.05334 z"
         style="font-style:normal;font-variant:normal;font-weight:normal;font-stretch:normal;font-size:5.92667px;font-family:Comfortaa;-inkscape-font-specification:Comfortaa;stroke-width:0.3175"
         id="path885" />
      <path
         d="m 71.652766,29.27048 q -0.456354,0 -0.817881,-0.21336 -0.361526,-0.219287 -0.574887,-0.592667 -0.207433,-0.37338 -0.207433,-0.841587 0,-0.474134 0.21336,-0.847514 0.219287,-0.37338 0.592667,-0.58674 0.37338,-0.219287 0.841587,-0.219287 0.468207,0 0.835661,0.219287 0.37338,0.21336 0.58674,0.58674 0.219287,0.37338 0.225214,0.847514 l -0.183727,0.14224 q 0,0.42672 -0.201507,0.770467 -0.19558,0.33782 -0.539327,0.539327 -0.33782,0.19558 -0.770467,0.19558 z m 0.04741,-0.414867 q 0.343747,0 0.610447,-0.16002 0.272627,-0.16002 0.426721,-0.438574 0.16002,-0.28448 0.16002,-0.634153 0,-0.355601 -0.16002,-0.634154 -0.154094,-0.278553 -0.426721,-0.438574 -0.2667,-0.165946 -0.610447,-0.165946 -0.33782,0 -0.610447,0.165946 -0.272627,0.160021 -0.432647,0.438574 -0.16002,0.278553 -0.16002,0.634154 0,0.349673 0.16002,0.634153 0.16002,0.278554 0.432647,0.438574 0.272627,0.16002 0.610447,0.16002 z m 1.416474,0.385234 q -0.100753,0 -0.165946,-0.05927 -0.06519,-0.06519 -0.06519,-0.165947 v -1.01346 l 0.112607,-0.468207 0.349674,0.0889 v 1.392767 q 0,0.100754 -0.06519,0.165947 -0.06519,0.05927 -0.165947,0.05927 z"
         style="font-style:normal;font-variant:normal;font-weight:normal;font-stretch:normal;font-size:5.92667px;font-family:Comfortaa;-inkscape-font-specification:Comfortaa;stroke-width:0.3175"
         id="path887" />
      <path
         d="m 75.50509,29.240847 q -0.314113,0 -0.563033,-0.148167 -0.242994,-0.148167 -0.385234,-0.403014 -0.14224,-0.260773 -0.14224,-0.592667 v -2.898141 q 0,-0.100754 0.05927,-0.165947 0.06519,-0.06519 0.165946,-0.06519 0.100754,0 0.165947,0.06519 0.06519,0.06519 0.06519,0.165947 v 2.898141 q 0,0.30226 0.177801,0.497841 0.1778,0.189653 0.456353,0.189653 h 0.16002 q 0.09483,0 0.154094,0.06519 0.05927,0.06519 0.05927,0.165947 0,0.100754 -0.07112,0.165947 -0.07112,0.05927 -0.1778,0.05927 z m -1.475741,-2.726269 q -0.0889,0 -0.148166,-0.05334 -0.05927,-0.05927 -0.05927,-0.14224 0,-0.0889 0.05927,-0.14224 0.05927,-0.05927 0.148166,-0.05927 h 1.511301 q 0.0889,0 0.148167,0.05927 0.05927,0.05334 0.05927,0.14224 0,0.08297 -0.05927,0.14224 -0.05927,0.05334 -0.148167,0.05334 z"
         style="font-style:normal;font-variant:normal;font-weight:normal;font-stretch:normal;font-size:5.92667px;font-family:Comfortaa;-inkscape-font-specification:Comfortaa;stroke-width:0.3175"
         id="path889" />
      <path
         d="m 76.945265,29.240847 q -0.10668,0 -0.171874,-0.05927 -0.05927,-0.06519 -0.05927,-0.171873 v -2.779609 q 0,-0.10668 0.05927,-0.165947 0.06519,-0.06519 0.171874,-0.06519 0.100753,0 0.16002,0.06519 0.06519,0.05927 0.06519,0.165947 v 2.779609 q 0,0.10668 -0.06519,0.171873 -0.05927,0.05927 -0.16002,0.05927 z m -0.0059,-3.858263 q -0.130387,0 -0.225214,-0.09483 -0.09483,-0.09483 -0.09483,-0.23114 0,-0.148167 0.09483,-0.231141 0.100754,-0.0889 0.231141,-0.0889 0.12446,0 0.219286,0.0889 0.100754,0.08297 0.100754,0.231141 0,0.136313 -0.09483,0.23114 -0.09483,0.09483 -0.23114,0.09483 z"
         style="font-style:normal;font-variant:normal;font-weight:normal;font-stretch:normal;font-size:5.92667px;font-family:Comfortaa;-inkscape-font-specification:Comfortaa;stroke-width:0.3175"
         id="path891" />
      <path
         d="m 79.807845,29.27048 q -0.474133,0 -0.847514,-0.21336 -0.37338,-0.21336 -0.58674,-0.58674 -0.21336,-0.373381 -0.21336,-0.847514 0,-0.480061 0.21336,-0.853441 0.21336,-0.37338 0.58674,-0.58674 0.373381,-0.21336 0.847514,-0.21336 0.474134,0 0.841587,0.21336 0.373381,0.21336 0.586741,0.58674 0.21336,0.37338 0.219287,0.853441 0,0.474133 -0.219287,0.847514 -0.21336,0.37338 -0.586741,0.58674 -0.367453,0.21336 -0.841587,0.21336 z m 0,-0.414867 q 0.343747,0 0.616374,-0.16002 0.272627,-0.16002 0.42672,-0.438574 0.154094,-0.278553 0.154094,-0.634153 0,-0.355601 -0.154094,-0.634154 -0.154093,-0.28448 -0.42672,-0.4445 -0.272627,-0.16002 -0.616374,-0.16002 -0.343747,0 -0.616373,0.16002 -0.272627,0.16002 -0.432647,0.4445 -0.154094,0.278553 -0.154094,0.634154 0,0.3556 0.154094,0.634153 0.16002,0.278554 0.432647,0.438574 0.272626,0.16002 0.616373,0.16002 z"
         style="font-style:normal;font-variant:normal;font-weight:normal;font-stretch:normal;font-size:5.92667px;font-family:Comfortaa;-inkscape-font-specification:Comfortaa;stroke-width:0.3175"
         id="path893" />
      <path
         d="m 85.124057,29.240847 q -0.100753,0 -0.165947,-0.06519 -0.06519,-0.06519 -0.06519,-0.16002 v -1.540934 q 0,-0.367454 -0.14224,-0.60452 -0.136314,-0.237067 -0.379307,-0.355601 -0.237067,-0.118533 -0.539327,-0.118533 -0.290407,0 -0.527474,0.112607 -0.23114,0.112606 -0.367453,0.308187 -0.136314,0.19558 -0.136314,0.4445 h -0.325966 q 0.01185,-0.37338 0.201506,-0.663787 0.189654,-0.296334 0.503767,-0.46228 0.314114,-0.171874 0.699347,-0.171874 0.420794,0 0.752687,0.1778 0.331894,0.171874 0.521547,0.509694 0.195581,0.33782 0.195581,0.823807 v 1.540934 q 0,0.09483 -0.06519,0.16002 -0.06519,0.06519 -0.16002,0.06519 z m -2.548468,0 q -0.10668,0 -0.171873,-0.05927 -0.05927,-0.06519 -0.05927,-0.165947 v -2.785535 q 0,-0.10668 0.05927,-0.165947 0.06519,-0.06519 0.171873,-0.06519 0.100753,0 0.16002,0.06519 0.06519,0.05927 0.06519,0.165947 v 2.785535 q 0,0.100754 -0.06519,0.165947 -0.05927,0.05927 -0.16002,0.05927 z"
         style="font-style:normal;font-variant:normal;font-weight:normal;font-stretch:normal;font-size:5.92667px;font-family:Comfortaa;-inkscape-font-specification:Comfortaa;stroke-width:0.3175"
         id="path895" />
    </g>
  </g>
</svg>
