<?xml version="1.0" encoding="UTF-8" standalone="no"?>
<svg
   xmlns:dc="http://purl.org/dc/elements/1.1/"
   xmlns:cc="http://creativecommons.org/ns#"
   xmlns:rdf="http://www.w3.org/1999/02/22-rdf-syntax-ns#"
   xmlns:svg="http://www.w3.org/2000/svg"
   xmlns="http://www.w3.org/2000/svg"
   width="150.38463mm"
   height="28.904081mm"
   viewBox="0 0 150.38463 28.904082"
   version="1.1"
   id="svg8">
  <defs
     id="defs2">
    <rect
       x="58.611374"
       y="5.6271358"
       width="37.860352"
       height="46.283169"
       id="rect852" />
  </defs>
  <metadata
     id="metadata5">
    <rdf:RDF>
      <cc:Work
         rdf:about="">
        <dc:format>image/svg+xml</dc:format>
        <dc:type
           rdf:resource="http://purl.org/dc/dcmitype/StillImage" />
        <dc:title></dc:title>
      </cc:Work>
    </rdf:RDF>
  </metadata>
  <g
     id="layer1"
     transform="translate(67.171157,-7.8515056)">
    <path
       style="fill:none;stroke:#666666;stroke-width:0.319883;stroke-linecap:butt;stroke-linejoin:miter;stroke-miterlimit:4;stroke-dasharray:none;stroke-opacity:1"
       d="M 18.230895,22.167223 H 31.658124"
       id="path1009-1" />
    <path
       style="fill:none;stroke:#666666;stroke-width:0.319883;stroke-linecap:butt;stroke-linejoin:miter;stroke-miterlimit:4;stroke-dasharray:none;stroke-opacity:1"
       d="M -29.948996,16.267503 H 30.47032"
       id="path1009-2" />
    <path
       style="fill:none;stroke:#666666;stroke-width:0.319883;stroke-linecap:butt;stroke-linejoin:miter;stroke-miterlimit:4;stroke-dasharray:none;stroke-opacity:1"
       d="M -28.092141,10.367782 H 32.327172"
       id="path1009" />
    <rect
       style="fill:#ffffff;fill-opacity:1;stroke:#000000;stroke-width:0.812011;stroke-linecap:square;stroke-linejoin:round;stroke-miterlimit:4;stroke-dasharray:none"
       id="rect833"
       width="13.034072"
       height="2.2205496"
       x="-40.616135"
       y="9.2575111" />
    <rect
       style="fill:#ffffff;fill-opacity:1;stroke:#000000;stroke-width:0.812011;stroke-linecap:square;stroke-linejoin:round;stroke-miterlimit:4;stroke-dasharray:none"
       id="rect833-7"
       width="38.183067"
       height="2.220546"
       x="-17.476034"
       y="9.2575111" />
    <rect
       style="fill:#ffffff;fill-opacity:1;stroke:#000000;stroke-width:0.812011;stroke-linecap:square;stroke-linejoin:round;stroke-miterlimit:4;stroke-dasharray:none"
       id="rect833-0"
       width="38.183067"
       height="2.220546"
       x="-65.765152"
       y="15.157231" />
    <rect
       style="fill:#ffffff;fill-opacity:1;stroke:#000000;stroke-width:0.812011;stroke-linecap:square;stroke-linejoin:round;stroke-miterlimit:4;stroke-dasharray:none"
       id="rect833-9"
       width="38.183067"
       height="2.220546"
       x="-17.476034"
       y="21.056953" />
    <rect
       style="fill:#ffffff;fill-opacity:1;stroke:#000000;stroke-width:0.812011;stroke-linecap:square;stroke-linejoin:round;stroke-miterlimit:4;stroke-dasharray:none"
       id="rect833-7-6"
       width="38.183067"
       height="2.220546"
       x="-17.476034"
       y="15.157231" />
    <g
       id="g852"
       transform="matrix(2.704,0,0,2.704,-103.32645,-32.583002)">
      <rect
         style="fill:#ffffff;fill-opacity:1;stroke:#000000;stroke-width:0.3003;stroke-linecap:square;stroke-linejoin:round;stroke-miterlimit:4;stroke-dasharray:none"
         id="rect833-2"
         width="10.873833"
         height="0.82120919"
         x="48.382454"
         y="15.473563" />
      <rect
         style="fill:#ffffff;fill-opacity:1;stroke:#000000;stroke-width:0.3003;stroke-linecap:square;stroke-linejoin:round;stroke-miterlimit:4;stroke-dasharray:none"
         id="rect833-2-3"
         width="10.873833"
         height="0.82120919"
         x="48.382454"
         y="19.837261" />
      <rect
         style="fill:#ffffff;fill-opacity:1;stroke:#000000;stroke-width:0.3003;stroke-linecap:square;stroke-linejoin:round;stroke-miterlimit:4;stroke-dasharray:none"
         id="rect833-06"
         width="4.8202929"
         height="0.82120919"
         x="48.382454"
         y="17.655411" />
    </g>
    <path
       style="fill:none;stroke:#666666;stroke-width:0.319883;stroke-linecap:butt;stroke-linejoin:miter;stroke-miterlimit:4;stroke-dasharray:none;stroke-opacity:1"
       d="M -28.774889,33.638315 H 31.644424"
       id="path1009-6" />
    <rect
       style="fill:#ffffff;fill-opacity:1;stroke:#003380;stroke-width:0.812011;stroke-linecap:square;stroke-linejoin:round;stroke-miterlimit:4;stroke-dasharray:none"
       id="rect833-0-8"
       width="38.183067"
       height="2.220546"
       x="-65.765152"
       y="32.528042" />
    <rect
       style="fill:#ffffff;fill-opacity:1;stroke:#003380;stroke-width:0.812011;stroke-linecap:square;stroke-linejoin:round;stroke-miterlimit:4;stroke-dasharray:none"
       id="rect833-7-6-7"
       width="38.183067"
       height="2.220546"
       x="-17.476034"
       y="32.528042" />
    <rect
       style="fill:#ffffff;fill-opacity:1;stroke:#003380;stroke-width:0.812011;stroke-linecap:square;stroke-linejoin:round;stroke-miterlimit:4;stroke-dasharray:none"
       id="rect833-2-3-9"
       width="29.402845"
       height="2.2205496"
       x="27.499718"
       y="32.528042" />
    <g
       aria-label="Isoforms"
       id="text1111"
       style="font-size:4.58611px;line-height:1.25;font-family:Arial;-inkscape-font-specification:Arial;letter-spacing:0px;word-spacing:0px;stroke-width:0.264583">
      <path
         d="m 62.147692,17.910042 0.687469,-3.282831 h 0.436665 l -0.685229,3.282831 z"
         style="font-style:italic;font-variant:normal;font-weight:normal;font-stretch:normal;font-size:4.58611px;font-family:Arial;-inkscape-font-specification:'Arial Italic';stroke-width:0.264583"
         id="path852" />
      <path
         d="m 63.350202,17.097172 0.405316,-0.02463 q 0,0.174667 0.05374,0.297829 0.05374,0.123162 0.19706,0.201538 0.145555,0.07838 0.338136,0.07838 0.268717,0 0.403076,-0.107487 0.134358,-0.107487 0.134358,-0.253042 0,-0.105248 -0.08061,-0.199299 -0.08285,-0.09405 -0.405315,-0.230649 -0.320222,-0.138838 -0.409794,-0.19482 -0.150034,-0.09181 -0.226171,-0.214974 -0.07614,-0.125402 -0.07614,-0.286632 0,-0.282153 0.223931,-0.483692 0.223931,-0.201538 0.627007,-0.201538 0.447862,0 0.680751,0.208256 0.235128,0.206017 0.244085,0.544153 l -0.396358,0.02687 q -0.009,-0.214974 -0.152273,-0.340375 -0.143316,-0.125402 -0.405316,-0.125402 -0.210495,0 -0.326939,0.09629 -0.116445,0.09629 -0.116445,0.208256 0,0.111966 0.100769,0.19706 0.06718,0.05822 0.347094,0.179145 0.465777,0.201538 0.586699,0.317982 0.192581,0.185863 0.192581,0.452341 0,0.176906 -0.109726,0.347093 -0.107487,0.170188 -0.331418,0.273196 -0.221692,0.100769 -0.523999,0.100769 -0.412033,0 -0.700905,-0.203777 -0.288871,-0.203777 -0.273196,-0.662836 z"
         style="font-style:italic;font-variant:normal;font-weight:normal;font-stretch:normal;font-size:4.58611px;font-family:Arial;-inkscape-font-specification:'Arial Italic';stroke-width:0.264583"
         id="path854" />
      <path
         d="m 65.676847,17.007599 q 0,-0.696426 0.409794,-1.153245 0.338136,-0.376205 0.886767,-0.376205 0.429948,0 0.691948,0.268718 0.264239,0.268717 0.264239,0.725537 0,0.409794 -0.16571,0.763605 -0.165709,0.351572 -0.472494,0.539674 -0.304547,0.188102 -0.642683,0.188102 -0.277674,0 -0.506084,-0.118683 -0.226171,-0.118684 -0.347093,-0.335897 -0.118684,-0.217213 -0.118684,-0.501606 z m 0.405315,-0.04031 q 0,0.335896 0.161231,0.510563 0.16123,0.172427 0.409794,0.172427 0.12988,0 0.257521,-0.05151 0.127641,-0.05374 0.237367,-0.16123 0.109726,-0.107487 0.185863,-0.244085 0.07838,-0.138837 0.125401,-0.297828 0.06942,-0.221692 0.06942,-0.42547 0,-0.32246 -0.16347,-0.499366 -0.16123,-0.179145 -0.407555,-0.179145 -0.190341,0 -0.347093,0.09181 -0.156752,0.08957 -0.284393,0.264239 -0.125401,0.174666 -0.185862,0.407554 -0.05822,0.230649 -0.05822,0.412034 z"
         style="font-style:italic;font-variant:normal;font-weight:normal;font-stretch:normal;font-size:4.58611px;font-family:Arial;-inkscape-font-specification:'Arial Italic';stroke-width:0.264583"
         id="path856" />
      <path
         d="m 68.211748,17.910042 0.432187,-2.064645 h -0.362768 l 0.06494,-0.313504 h 0.362768 l 0.06942,-0.338136 q 0.05374,-0.253042 0.109726,-0.365008 0.05822,-0.111966 0.185863,-0.183623 0.12988,-0.0739 0.351572,-0.0739 0.154512,0 0.447862,0.06494 l -0.0739,0.353812 q -0.206017,-0.05374 -0.344854,-0.05374 -0.118684,0 -0.181384,0.06046 -0.06046,0.05822 -0.105248,0.279914 l -0.05374,0.255282 h 0.452341 l -0.06494,0.313504 H 69.04925 l -0.432187,2.064645 z"
         style="font-style:italic;font-variant:normal;font-weight:normal;font-stretch:normal;font-size:4.58611px;font-family:Arial;-inkscape-font-specification:'Arial Italic';stroke-width:0.264583"
         id="path858" />
      <path
         d="m 69.501592,17.007599 q 0,-0.696426 0.409794,-1.153245 0.338136,-0.376205 0.886767,-0.376205 0.429948,0 0.691947,0.268718 0.264239,0.268717 0.264239,0.725537 0,0.409794 -0.165709,0.763605 -0.165709,0.351572 -0.472495,0.539674 -0.304546,0.188102 -0.642682,0.188102 -0.277675,0 -0.506085,-0.118683 -0.22617,-0.118684 -0.347093,-0.335897 -0.118683,-0.217213 -0.118683,-0.501606 z m 0.405315,-0.04031 q 0,0.335896 0.16123,0.510563 0.161231,0.172427 0.409794,0.172427 0.12988,0 0.257521,-0.05151 0.127641,-0.05374 0.237367,-0.16123 0.109727,-0.107487 0.185863,-0.244085 0.07838,-0.138837 0.125402,-0.297828 0.06942,-0.221692 0.06942,-0.42547 0,-0.32246 -0.16347,-0.499366 -0.16123,-0.179145 -0.407554,-0.179145 -0.190342,0 -0.347094,0.09181 -0.156751,0.08957 -0.284392,0.264239 -0.125402,0.174666 -0.185863,0.407554 -0.05822,0.230649 -0.05822,0.412034 z"
         style="font-style:italic;font-variant:normal;font-weight:normal;font-stretch:normal;font-size:4.58611px;font-family:Arial;-inkscape-font-specification:'Arial Italic';stroke-width:0.264583"
         id="path860" />
      <path
         d="m 71.980509,17.910042 0.497127,-2.378149 h 0.35829 l -0.100769,0.485931 q 0.183623,-0.275436 0.35829,-0.407555 0.176905,-0.13212 0.360529,-0.13212 0.120923,0 0.297828,0.08733 l -0.165709,0.376204 q -0.105247,-0.07614 -0.230649,-0.07614 -0.212734,0 -0.436666,0.237367 -0.223931,0.237367 -0.351572,0.853178 l -0.201538,0.953947 z"
         style="font-style:italic;font-variant:normal;font-weight:normal;font-stretch:normal;font-size:4.58611px;font-family:Arial;-inkscape-font-specification:'Arial Italic';stroke-width:0.264583"
         id="path862" />
      <path
         d="m 73.505481,17.910042 0.497127,-2.378149 h 0.405315 l -0.08285,0.391879 q 0.22617,-0.253042 0.403076,-0.349332 0.179145,-0.09629 0.387401,-0.09629 0.221692,0 0.369486,0.118684 0.150034,0.116444 0.19706,0.326939 0.181384,-0.223931 0.380683,-0.333657 0.201538,-0.111966 0.423229,-0.111966 0.297829,0 0.445623,0.141077 0.150034,0.141077 0.150034,0.396358 0,0.109726 -0.0515,0.362769 l -0.320221,1.531689 H 76.30462 l 0.32694,-1.571997 q 0.04255,-0.192581 0.04255,-0.275435 0,-0.116444 -0.0739,-0.183624 -0.0739,-0.06718 -0.208256,-0.06718 -0.181384,0 -0.369486,0.109726 -0.188102,0.109726 -0.29335,0.288871 -0.103008,0.176906 -0.181384,0.546392 l -0.241846,1.153246 h -0.405315 l 0.335897,-1.605587 q 0.03583,-0.163469 0.03583,-0.232888 0,-0.116444 -0.0739,-0.188102 -0.07166,-0.07166 -0.188102,-0.07166 -0.172427,0 -0.362768,0.109726 -0.188103,0.109726 -0.306786,0.306786 -0.118684,0.19482 -0.19482,0.557588 l -0.235128,1.124135 z"
         style="font-style:italic;font-variant:normal;font-weight:normal;font-stretch:normal;font-size:4.58611px;font-family:Arial;-inkscape-font-specification:'Arial Italic';stroke-width:0.264583"
         id="path864" />
      <path
         d="m 77.366054,17.097172 0.405315,-0.02463 q 0,0.174667 0.05374,0.297829 0.05374,0.123162 0.197059,0.201538 0.145556,0.07838 0.338136,0.07838 0.268718,0 0.403076,-0.107487 0.134359,-0.107487 0.134359,-0.253042 0,-0.105248 -0.08062,-0.199299 -0.08285,-0.09405 -0.405315,-0.230649 -0.320222,-0.138838 -0.409794,-0.19482 -0.150034,-0.09181 -0.226171,-0.214974 -0.07614,-0.125402 -0.07614,-0.286632 0,-0.282153 0.223932,-0.483692 0.223931,-0.201538 0.627007,-0.201538 0.447862,0 0.680751,0.208256 0.235127,0.206017 0.244085,0.544153 l -0.396359,0.02687 q -0.009,-0.214974 -0.152273,-0.340375 -0.143316,-0.125402 -0.405315,-0.125402 -0.210495,0 -0.32694,0.09629 -0.116444,0.09629 -0.116444,0.208256 0,0.111966 0.100769,0.19706 0.06718,0.05822 0.347093,0.179145 0.465777,0.201538 0.5867,0.317982 0.192581,0.185863 0.192581,0.452341 0,0.176906 -0.109726,0.347093 -0.107487,0.170188 -0.331418,0.273196 -0.221692,0.100769 -0.523999,0.100769 -0.412034,0 -0.700905,-0.203777 -0.288871,-0.203777 -0.273196,-0.662836 z"
         style="font-style:italic;font-variant:normal;font-weight:normal;font-stretch:normal;font-size:4.58611px;font-family:Arial;-inkscape-font-specification:'Arial Italic';stroke-width:0.264583"
         id="path866" />
    </g>
    <g
       aria-label="Metagene"
       id="text1115"
       style="font-size:4.58611px;line-height:1.25;font-family:Arial;-inkscape-font-specification:Arial;letter-spacing:0px;word-spacing:0px;stroke-width:0.264583">
      <path
         d="m 62.129089,34.803879 0.68523,-3.282831 h 0.539674 l 0.331418,2.127346 q 0.06494,0.418751 0.08509,0.803913 0.136598,-0.331418 0.456819,-0.897964 l 1.151006,-2.033295 h 0.548632 l -0.68523,3.282831 H 64.809545 L 65.15216,33.20725 q 0.118683,-0.55311 0.340375,-1.240579 -0.141076,0.320222 -0.349332,0.689708 l -1.222664,2.1475 h -0.42323 L 63.16813,32.698926 q -0.04479,-0.288871 -0.06494,-0.674033 -0.05598,0.432187 -0.109726,0.685229 l -0.436666,2.093757 z"
         style="font-style:italic;font-variant:normal;font-weight:normal;font-stretch:normal;font-size:4.58611px;font-family:Arial;-inkscape-font-specification:'Arial Italic';stroke-width:0.264583"
         id="path869" />
      <path
         d="m 67.646753,33.995487 0.394119,0.04031 q -0.08509,0.29335 -0.39188,0.557588 -0.304546,0.264239 -0.727776,0.264239 -0.264239,0 -0.485931,-0.120923 -0.219452,-0.123162 -0.335896,-0.35605 -0.114205,-0.232889 -0.114205,-0.530717 0,-0.38964 0.179145,-0.754648 0.181384,-0.367247 0.468016,-0.544153 0.286632,-0.179145 0.620289,-0.179145 0.425469,0 0.678512,0.264239 0.255281,0.264239 0.255281,0.721059 0,0.174666 -0.03135,0.358289 h -1.751142 q -0.009,0.06942 -0.009,0.125402 0,0.333657 0.152273,0.510563 0.154513,0.174666 0.376204,0.174666 0.208256,0 0.409794,-0.136598 0.201538,-0.136598 0.313504,-0.394119 z m -1.177878,-0.588939 h 1.33463 q 0.0022,-0.0627 0.0022,-0.08957 0,-0.304546 -0.152273,-0.465777 -0.152273,-0.16347 -0.39188,-0.16347 -0.25976,0 -0.474734,0.179145 -0.212734,0.179145 -0.317982,0.539674 z"
         style="font-style:italic;font-variant:normal;font-weight:normal;font-stretch:normal;font-size:4.58611px;font-family:Arial;-inkscape-font-specification:'Arial Italic';stroke-width:0.264583"
         id="path871" />
      <path
         d="m 69.397895,34.4747 -0.06718,0.331418 q -0.145555,0.03807 -0.282153,0.03807 -0.241845,0 -0.385161,-0.118683 -0.107487,-0.08957 -0.107487,-0.244085 0,-0.07838 0.05822,-0.360529 l 0.288871,-1.381655 h -0.320222 l 0.06494,-0.313504 h 0.320222 l 0.123162,-0.58446 0.463538,-0.279914 -0.181385,0.864374 h 0.398598 l -0.06718,0.313504 h -0.396358 l -0.275435,1.314475 q -0.0515,0.250803 -0.0515,0.300068 0,0.07166 0.04031,0.109726 0.04255,0.03807 0.136598,0.03807 0.134359,0 0.239607,-0.02687 z"
         style="font-style:italic;font-variant:normal;font-weight:normal;font-stretch:normal;font-size:4.58611px;font-family:Arial;-inkscape-font-specification:'Arial Italic';stroke-width:0.264583"
         id="path873" />
      <path
         d="m 71.328182,34.50829 q -0.210496,0.181384 -0.405316,0.266478 -0.19482,0.08285 -0.416512,0.08285 -0.329179,0 -0.530717,-0.192581 -0.201538,-0.19482 -0.201538,-0.497127 0,-0.199298 0.08957,-0.351572 0.09181,-0.154512 0.241845,-0.246324 0.150034,-0.09405 0.367248,-0.134359 0.136598,-0.02687 0.51728,-0.04255 0.382923,-0.01568 0.548632,-0.08062 0.04702,-0.165709 0.04702,-0.275435 0,-0.141077 -0.103008,-0.221692 -0.141077,-0.111965 -0.412033,-0.111965 -0.255282,0 -0.418752,0.114204 -0.16123,0.111966 -0.235127,0.320222 l -0.409794,-0.03583 q 0.125401,-0.353811 0.396358,-0.541913 0.273196,-0.188103 0.687469,-0.188103 0.441144,0 0.698665,0.210496 0.197059,0.156752 0.197059,0.407554 0,0.190342 -0.05598,0.441145 l -0.132119,0.591178 q -0.0627,0.282153 -0.0627,0.459059 0,0.111965 0.04926,0.322461 h -0.409794 q -0.03359,-0.116444 -0.04703,-0.295589 z m 0.150033,-0.909161 q -0.08509,0.03359 -0.183623,0.0515 -0.09629,0.01792 -0.3247,0.03807 -0.353812,0.03135 -0.499367,0.08062 -0.145555,0.04702 -0.219452,0.152273 -0.0739,0.105248 -0.0739,0.232888 0,0.170188 0.116445,0.279914 0.118683,0.109727 0.335896,0.109727 0.201538,0 0.387401,-0.105248 0.185863,-0.107487 0.29335,-0.297828 0.107487,-0.190342 0.167948,-0.541914 z"
         style="font-style:italic;font-variant:normal;font-weight:normal;font-stretch:normal;font-size:4.58611px;font-family:Arial;-inkscape-font-specification:'Arial Italic';stroke-width:0.264583"
         id="path875" />
      <path
         d="m 72.253017,35.018853 0.409794,0.03807 q -0.0045,0.138837 0.03359,0.208256 0.03807,0.06942 0.120923,0.107487 0.109726,0.04926 0.284393,0.04926 0.367247,0 0.528477,-0.190342 0.105248,-0.12764 0.19482,-0.555349 l 0.04031,-0.192581 q -0.315743,0.320222 -0.671794,0.320222 -0.360529,0 -0.604614,-0.264239 -0.241845,-0.266478 -0.241845,-0.752409 0,-0.400836 0.190341,-0.736733 0.192581,-0.335897 0.45682,-0.506085 0.264238,-0.172427 0.544152,-0.172427 0.468017,0 0.721059,0.443384 l 0.08062,-0.38964 h 0.371726 l -0.479213,2.295294 q -0.07838,0.378444 -0.206017,0.588939 -0.12764,0.212735 -0.35605,0.329179 -0.226171,0.116444 -0.523999,0.116444 -0.286632,0 -0.494888,-0.0739 -0.206017,-0.0739 -0.309025,-0.217213 -0.100769,-0.141077 -0.100769,-0.3247 0,-0.05598 0.0112,-0.120923 z m 0.506084,-1.267451 q 0,0.244085 0.04703,0.367247 0.06718,0.172427 0.190341,0.264239 0.125401,0.08957 0.277675,0.08957 0.199298,0 0.396358,-0.138838 0.197059,-0.141076 0.317982,-0.434426 0.123162,-0.29335 0.123162,-0.559828 0,-0.29335 -0.16347,-0.465777 -0.16123,-0.174666 -0.400836,-0.174666 -0.147795,0 -0.286632,0.08062 -0.138838,0.07838 -0.25976,0.241846 -0.118684,0.16123 -0.181385,0.387401 -0.06046,0.22617 -0.06046,0.342614 z"
         style="font-style:italic;font-variant:normal;font-weight:normal;font-stretch:normal;font-size:4.58611px;font-family:Arial;-inkscape-font-specification:'Arial Italic';stroke-width:0.264583"
         id="path877" />
      <path
         d="m 76.572649,33.995487 0.394119,0.04031 q -0.08509,0.29335 -0.39188,0.557588 -0.304546,0.264239 -0.727776,0.264239 -0.264239,0 -0.485931,-0.120923 -0.219452,-0.123162 -0.335896,-0.35605 -0.114205,-0.232889 -0.114205,-0.530717 0,-0.38964 0.179145,-0.754648 0.181384,-0.367247 0.468016,-0.544153 0.286632,-0.179145 0.620289,-0.179145 0.425469,0 0.678512,0.264239 0.255281,0.264239 0.255281,0.721059 0,0.174666 -0.03135,0.358289 h -1.751142 q -0.009,0.06942 -0.009,0.125402 0,0.333657 0.152273,0.510563 0.154512,0.174666 0.376204,0.174666 0.208256,0 0.409794,-0.136598 0.201538,-0.136598 0.313504,-0.394119 z m -1.177878,-0.588939 h 1.33463 q 0.0022,-0.0627 0.0022,-0.08957 0,-0.304546 -0.152273,-0.465777 -0.152273,-0.16347 -0.39188,-0.16347 -0.25976,0 -0.474734,0.179145 -0.212734,0.179145 -0.317982,0.539674 z"
         style="font-style:italic;font-variant:normal;font-weight:normal;font-stretch:normal;font-size:4.58611px;font-family:Arial;-inkscape-font-specification:'Arial Italic';stroke-width:0.264583"
         id="path879" />
      <path
         d="m 77.376562,34.803879 0.497127,-2.378149 h 0.367247 l -0.08733,0.414273 q 0.239607,-0.244085 0.447863,-0.356051 0.208256,-0.111966 0.425469,-0.111966 0.288871,0 0.452341,0.156752 0.165709,0.156752 0.165709,0.418751 0,0.13212 -0.05822,0.416512 l -0.302307,1.439878 H 78.87914 l 0.315743,-1.507057 q 0.04703,-0.219452 0.04703,-0.3247 0,-0.118684 -0.08286,-0.192581 -0.08061,-0.0739 -0.235128,-0.0739 -0.311264,0 -0.555349,0.223931 -0.241845,0.223931 -0.35605,0.768084 l -0.230649,1.10622 z"
         style="font-style:italic;font-variant:normal;font-weight:normal;font-stretch:normal;font-size:4.58611px;font-family:Arial;-inkscape-font-specification:'Arial Italic';stroke-width:0.264583"
         id="path881" />
      <path
         d="m 81.6738,33.995487 0.394119,0.04031 q -0.08509,0.29335 -0.391879,0.557588 -0.304547,0.264239 -0.727777,0.264239 -0.264238,0 -0.48593,-0.120923 -0.219453,-0.123162 -0.335897,-0.35605 -0.114205,-0.232889 -0.114205,-0.530717 0,-0.38964 0.179145,-0.754648 0.181384,-0.367247 0.468016,-0.544153 0.286632,-0.179145 0.62029,-0.179145 0.425469,0 0.678511,0.264239 0.255282,0.264239 0.255282,0.721059 0,0.174666 -0.03135,0.358289 h -1.751142 q -0.009,0.06942 -0.009,0.125402 0,0.333657 0.152273,0.510563 0.154513,0.174666 0.376205,0.174666 0.208256,0 0.409794,-0.136598 0.201538,-0.136598 0.313503,-0.394119 z m -1.177877,-0.588939 h 1.334629 q 0.0022,-0.0627 0.0022,-0.08957 0,-0.304546 -0.152274,-0.465777 -0.152273,-0.16347 -0.391879,-0.16347 -0.25976,0 -0.474734,0.179145 -0.212735,0.179145 -0.317982,0.539674 z"
         style="font-style:italic;font-variant:normal;font-weight:normal;font-stretch:normal;font-size:4.58611px;font-family:Arial;-inkscape-font-specification:'Arial Italic';stroke-width:0.264583"
         id="path883" />
    </g>
    <text
       xml:space="preserve"
       id="text850"
       style="font-size:3.175px;line-height:1.25;font-family:Arial;-inkscape-font-specification:Arial;letter-spacing:0px;word-spacing:0px;white-space:pre;shape-inside:url(#rect852);" />
  </g>
</svg>
